<?xml version="1.0" encoding="iso-8859-1"?>
<!-- Generator: Adobe Illustrator 18.0.0, SVG Export Plug-In . SVG Version: 6.00 Build 0)  -->
<!DOCTYPE svg PUBLIC "-//W3C//DTD SVG 1.1//EN" "http://www.w3.org/Graphics/SVG/1.1/DTD/svg11.dtd">
<svg version="1.1" id="Capa_1" xmlns="http://www.w3.org/2000/svg" xmlns:xlink="http://www.w3.org/1999/xlink" x="0px" y="0px"
	 viewBox="0 0 487.388 487.388" style="enable-background:new 0 0 487.388 487.388;" xml:space="preserve">
<path d="M472.794,25.046h-19.652c-8.047,0-14.593,6.546-14.593,14.593v16.583L44.356,140.603V135.9
	c0-8.046-6.546-14.593-14.593-14.593h-15.17C6.546,121.307,0,127.854,0,135.9v198.448c0,8.046,6.546,14.593,14.593,14.593h15.17
	c8.046,0,14.593-6.546,14.593-14.593v-4.666l21.942,4.701c-0.776,28.254,8.064,56.061,25.082,78.655
	c17.877,23.734,43.745,40.256,72.837,46.523c8.642,1.861,17.391,2.782,26.109,2.781c20.642-0.001,41.092-5.161,59.394-15.199
	c24.876-13.643,44.336-35.464,55.129-61.654l133.699,28.643v16.478c0,8.047,6.546,14.593,14.593,14.593h19.652
	c8.047,0,14.593-6.546,14.593-14.593V39.639C487.388,31.592,480.841,25.046,472.794,25.046z M35.856,334.348
	c0,3.359-2.733,6.093-6.093,6.093h-15.17c-3.36,0-6.093-2.733-6.093-6.093V135.9c0-3.359,2.733-6.093,6.093-6.093h15.17
	c3.359,0,6.093,2.733,6.093,6.093V334.348z M166.008,451.251c-54.382-11.714-92.094-59.669-91.249-115.056l22.682,4.859
	c0.705,20.035,7.841,39.52,20.294,55.186c13.283,16.709,32.118,28.393,53.036,32.898c6.443,1.388,12.984,2.074,19.506,2.074
	c14.662,0,29.225-3.468,42.344-10.229c17.846-9.195,32.339-24.099,41.113-42.162l22.685,4.86
	C274.676,434.701,220.574,463.007,166.008,451.251z M265.146,376.983c-17.323,33.51-55.464,51.841-92.585,43.847
	c-37.589-8.096-64.319-39.76-66.526-77.934L265.146,376.983z M405.83,398.429V215.872c0-2.347-1.903-4.25-4.25-4.25
	c-2.347,0-4.25,1.903-4.25,4.25v180.736l-272.5-58.379v-32.357c0-2.347-1.903-4.25-4.25-4.25c-2.347,0-4.25,1.903-4.25,4.25v30.537
	l-44.5-9.533v-64.003c0-2.347-1.903-4.25-4.25-4.25c-2.347,0-4.25,1.903-4.25,4.25v62.182l-18.974-4.065V149.296l329.974-70.634
	v19.211c0,2.347,1.903,4.25,4.25,4.25c2.347,0,4.25-1.903,4.25-4.25v-21.03l55.719-11.927v73.921L54.99,192.664
	c-2.324,0.326-3.944,2.475-3.618,4.799c0.298,2.124,2.118,3.66,4.204,3.66c0.197,0,0.396-0.014,0.596-0.042l382.378-53.661v17.659
	L234.736,194.62c-2.323,0.337-3.933,2.493-3.596,4.816c0.307,2.116,2.124,3.641,4.201,3.641c0.203,0,0.409-0.015,0.615-0.044
	l202.593-29.365v231.772L405.83,398.429z M478.888,430.61c0,3.36-2.733,6.093-6.093,6.093h-4.964V304.872
	c0-2.347-1.903-4.25-4.25-4.25c-2.347,0-4.25,1.903-4.25,4.25v131.831h-6.188c-3.36,0-6.093-2.733-6.093-6.093V39.639
	c0-3.36,2.733-6.093,6.093-6.093h19.652c3.36,0,6.093,2.733,6.093,6.093V430.61z"/>
<g>
</g>
<g>
</g>
<g>
</g>
<g>
</g>
<g>
</g>
<g>
</g>
<g>
</g>
<g>
</g>
<g>
</g>
<g>
</g>
<g>
</g>
<g>
</g>
<g>
</g>
<g>
</g>
<g>
</g>
</svg>
