<?xml version="1.0" encoding="iso-8859-1"?>
<!-- Generator: Adobe Illustrator 18.0.0, SVG Export Plug-In . SVG Version: 6.00 Build 0)  -->
<!DOCTYPE svg PUBLIC "-//W3C//DTD SVG 1.1//EN" "http://www.w3.org/Graphics/SVG/1.1/DTD/svg11.dtd">
<svg version="1.1" id="Capa_1" xmlns="http://www.w3.org/2000/svg" xmlns:xlink="http://www.w3.org/1999/xlink" x="0px" y="0px"
	 viewBox="0 0 490.188 490.188" style="enable-background:new 0 0 490.188 490.188;" xml:space="preserve">
<path d="M437.425,93.17C390.591,33.959,320.489,0,245.094,0C187.77,0,132,20.219,88.061,56.933
	C32.535,103.329,0.445,171.373,0.019,243.62l-0.008,0.6C0.005,244.51,0,244.801,0,245.094c0,65.467,25.494,127.016,71.787,173.308
	c46.292,46.292,107.84,71.786,173.308,71.786l0.376-0.005c0.002,0,0.004,0,0.006,0c65.387-0.1,126.845-25.638,173.051-71.909
	c46.211-46.276,71.661-107.779,71.661-173.18C490.188,189.345,471.943,136.811,437.425,93.17z M383.064,52.814l-44.624,54.65
	c-1.484,1.818-1.214,4.496,0.604,5.98c0.789,0.645,1.74,0.958,2.686,0.958c1.232,0,2.455-0.533,3.294-1.562l44.861-54.94
	c13.961,10.84,26.821,23.326,38.3,37.346l-94.519,80.252c-21.291-27.039-54.063-43.051-88.572-43.051
	c-21.049,0-41.445,5.813-59.221,16.824l-88.759-88.76c4.519-3.625,9.162-7.069,13.915-10.338l43.148,44.924
	c0.835,0.868,1.949,1.306,3.065,1.306c1.059,0,2.12-0.394,2.943-1.185c1.693-1.626,1.747-4.316,0.121-6.01l-42.075-43.806
	C155.951,21.451,200.023,8.5,245.094,8.5C295.449,8.5,343.347,24.212,383.064,52.814z M245.019,349.24l-0.222-0.003h-0.001
	c-57.263-0.161-103.849-46.879-103.849-104.143c0-0.295,0.005-0.589,0.01-0.883l0.008-0.51v-0.001
	c0.452-34.445,17.896-66.396,46.663-85.471c17.053-11.306,36.924-17.282,57.466-17.282c33.321,0,64.891,16.148,84.449,43.193
	c12.887,17.821,19.698,38.898,19.698,60.953C349.241,302.521,302.521,349.241,245.019,349.24z M90.551,65.97l88.133,88.133
	c-27.446,20.056-44.377,51.365-46.085,85.292H8.582c0.245-10.28,1.16-20.463,2.707-30.497h46.957c2.347,0,4.25-1.902,4.25-4.25
	c0-2.348-1.903-4.25-4.25-4.25H12.771C22.727,148.496,49.857,101.109,90.551,65.97z M13.359,292.894h97.385
	c2.347,0,4.25-1.902,4.25-4.25c0-2.348-1.903-4.25-4.25-4.25H11.781c-1.997-11.893-3.101-24.082-3.246-36.499h123.947
	c1.457,59.251,49.009,107.397,108.073,109.752l0.643,124.01C128.833,479.837,35.273,399.291,13.359,292.894z M283.063,478.621
	l-4.05-91.17c-0.104-2.346-2.112-4.167-4.434-4.058c-2.345,0.104-4.162,2.09-4.057,4.435l4.087,92.013
	c-8.183,1.023-16.495,1.621-24.911,1.782l-0.643-123.959c60.286-2.095,108.686-51.782,108.686-112.569
	c0-22.535-6.584-44.125-19.065-62.698l94.778-80.472c3.011,3.951,5.885,7.976,8.624,12.067l-44.02,37.939
	c-1.778,1.533-1.977,4.217-0.445,5.994c0.84,0.975,2.027,1.475,3.221,1.475c0.983,0,1.97-0.339,2.773-1.03l43.112-37.156
	c22.948,37.12,34.97,79.439,34.97,123.88C481.688,362.556,395.51,460.385,283.063,478.621z"/>
<g>
</g>
<g>
</g>
<g>
</g>
<g>
</g>
<g>
</g>
<g>
</g>
<g>
</g>
<g>
</g>
<g>
</g>
<g>
</g>
<g>
</g>
<g>
</g>
<g>
</g>
<g>
</g>
<g>
</g>
</svg>
