<?xml version="1.0" encoding="iso-8859-1"?>
<!-- Generator: Adobe Illustrator 18.0.0, SVG Export Plug-In . SVG Version: 6.00 Build 0)  -->
<!DOCTYPE svg PUBLIC "-//W3C//DTD SVG 1.1//EN" "http://www.w3.org/Graphics/SVG/1.1/DTD/svg11.dtd">
<svg version="1.1" id="Capa_1" xmlns="http://www.w3.org/2000/svg" xmlns:xlink="http://www.w3.org/1999/xlink" x="0px" y="0px"
	 viewBox="0 0 491.137 491.137" style="enable-background:new 0 0 491.137 491.137;" xml:space="preserve">
<g>
	<path d="M414.611,76.616L246.62,33.721c-0.69-0.177-1.413-0.177-2.103,0L76.526,76.616c-1.638,0.418-2.872,1.766-3.143,3.434
		c-1.257,7.717-30.445,189.774,0.324,257.693c24.122,53.246,164.168,116.764,170.118,119.442c0.555,0.25,1.149,0.375,1.744,0.375
		c0.595,0,1.189-0.125,1.744-0.375c5.95-2.678,145.997-66.196,170.119-119.442c30.768-67.919,1.581-249.977,0.324-257.693
		C417.483,78.382,416.249,77.034,414.611,76.616z M210.028,51.3v98.766c0,2.347,1.903,4.25,4.25,4.25c2.347,0,4.25-1.903,4.25-4.25
		V49.129l22.791-5.819v198.014H93.329c0.254-69.028,11.529-148.757,13.739-163.734L210.028,51.3z M81.343,84.158l16.805-4.291
		c-3.081,21.482-13.081,96.156-13.32,161.456H68.265C68.142,173.934,79.024,99.28,81.343,84.158z M81.448,334.236
		c-9.024-19.92-12.562-50.891-13.109-84.412h172.98v196.828C213.962,433.757,101.553,378.615,81.448,334.236z M274.362,340.994
		c2.347,0,4.25-1.903,4.25-4.25v-86.921h118.589c-1.444,28.245-5.403,50.218-11.508,63.697
		c-16.582,36.603-100.375,82.808-135.874,99.864V249.824h20.294v86.921C270.112,339.091,272.015,340.994,274.362,340.994z
		 M409.689,334.236c-20.1,44.368-132.514,99.519-159.871,112.415v-23.858c35.816-16.725,125.284-65.298,143.617-105.765
		c8.155-18.005,11.199-45.744,12.282-67.205h17.081C422.25,283.345,418.713,314.316,409.689,334.236z M422.872,241.324H249.818
		V43.31l159.976,40.849C412.113,99.28,422.995,173.934,422.872,241.324z"/>
	<path d="M458.284,172.63c-4.405-63.783-13.283-118.686-13.372-119.233c-0.272-1.668-1.506-3.016-3.143-3.434L246.62,0.133
		c-0.69-0.177-1.413-0.177-2.103,0L49.369,49.963c-1.638,0.418-2.872,1.766-3.144,3.434c-0.089,0.547-8.967,55.45-13.372,119.233
		c-5.945,86.074-1.337,146.542,13.696,179.724c27.914,61.621,190.373,135.302,197.275,138.409c0.555,0.25,1.149,0.375,1.744,0.375
		c0.595,0,1.189-0.125,1.744-0.375c6.902-3.106,169.36-76.787,197.276-138.409C459.621,319.172,464.229,258.704,458.284,172.63z
		 M436.847,348.846c-25.116,55.441-173.428,125.142-191.278,133.367c-17.85-8.224-166.157-77.914-191.277-133.367
		c-32.474-71.681-4.022-265.919-0.107-291.341L245.568,8.637l191.384,48.869C440.869,82.926,469.319,277.166,436.847,348.846z"/>
	<path d="M214.278,208.77c2.347,0,4.25-1.903,4.25-4.25v-33.375c0-2.347-1.903-4.25-4.25-4.25c-2.347,0-4.25,1.903-4.25,4.25v33.375
		C210.028,206.867,211.931,208.77,214.278,208.77z"/>
</g>
<g>
</g>
<g>
</g>
<g>
</g>
<g>
</g>
<g>
</g>
<g>
</g>
<g>
</g>
<g>
</g>
<g>
</g>
<g>
</g>
<g>
</g>
<g>
</g>
<g>
</g>
<g>
</g>
<g>
</g>
</svg>
