<?xml version="1.0" encoding="iso-8859-1"?>
<!-- Generator: Adobe Illustrator 18.0.0, SVG Export Plug-In . SVG Version: 6.00 Build 0)  -->
<!DOCTYPE svg PUBLIC "-//W3C//DTD SVG 1.1//EN" "http://www.w3.org/Graphics/SVG/1.1/DTD/svg11.dtd">
<svg version="1.1" id="Capa_1" xmlns="http://www.w3.org/2000/svg" xmlns:xlink="http://www.w3.org/1999/xlink" x="0px" y="0px"
	 viewBox="0 0 487.446 487.446" style="enable-background:new 0 0 487.446 487.446;" xml:space="preserve">
<g>
	<path d="M246.83,62.735c0-2.347-1.903-4.25-4.25-4.25c-44.581,0-80.85,36.269-80.85,80.85c0,2.347,1.903,4.25,4.25,4.25
		s4.25-1.903,4.25-4.25c0-39.894,32.456-72.35,72.35-72.35C244.927,66.985,246.83,65.082,246.83,62.735z"/>
	<path d="M485.834,247.071c-29.577-23.419-58.583-15.534-69.318-11.269c-6.703-18.528-17.162-34.931-31.176-48.807
		c8.671-8.722,38.255-35.318,73.046-31.37c2.328,0.264,4.438-1.41,4.703-3.743c0.265-2.333-1.411-4.438-3.743-4.703
		c-39.078-4.443-70.913,24.469-80.248,34.007c-2.477-2.165-5.037-4.269-7.704-6.292c-9.256-7.019-19.508-13.089-30.638-18.184
		c1.008-5.726,1.54-11.562,1.54-17.377c0-41.216-25.136-76.671-60.883-91.842c10.443-11.772,45.286-44.436,102.923-34.173
		c2.306,0.411,4.518-1.128,4.929-3.439c0.412-2.311-1.128-4.518-3.439-4.929c-39.046-6.954-68.11,4.695-85.617,15.691
		c-14.599,9.169-23.685,19.26-27.294,23.701c-9.57-3.063-19.761-4.723-30.334-4.723c-10.563,0-20.745,1.657-30.307,4.714
		c-3.688-4.513-12.766-14.523-27.251-23.628C167.484,9.68,138.38-2.003,99.335,4.951c-2.311,0.412-3.851,2.618-3.439,4.929
		c0.412,2.31,2.617,3.851,4.929,3.439c29.069-5.175,55.772-0.335,79.368,14.391c11.488,7.17,19.406,15.07,23.578,19.772
		c-35.76,15.166-60.906,50.628-60.906,91.853c0,5.815,0.532,11.651,1.54,17.377c-11.129,5.095-21.382,11.165-30.638,18.184
		c-2.211,1.677-4.357,3.404-6.438,5.179c-9.014-9.206-40.082-37.344-79.229-32.895c-2.332,0.265-4.008,2.37-3.743,4.703
		c0.264,2.331,2.365,4.008,4.703,3.743c34.679-3.939,63.5,21.735,71.954,30.189c-14.39,13.9-25.142,30.405-32.049,49.092
		c-10.388-4.045-37.972-11.101-67.353,12.164c-1.84,1.457-2.151,4.13-0.694,5.97c0.839,1.06,2.081,1.612,3.335,1.612
		c0.924,0,1.855-0.3,2.635-0.918c26.513-20.994,51.071-14.102,59.377-10.764c-4.286,14.22-6.472,29.591-6.472,45.943
		c0,17.806,2.615,35.646,7.58,52.912c0.053,0.522,0.193,1.013,0.417,1.462c5.321,17.988,13.214,35.324,23.385,51.319
		c-14.78,3.792-51.501,16.33-67.173,49.939c-0.992,2.127-0.071,4.656,2.056,5.648c0.581,0.27,1.192,0.399,1.793,0.399
		c1.601,0,3.134-0.909,3.855-2.455c15.169-32.531,54.009-43.549,64.509-45.981c5.174,7.383,10.846,14.443,17.001,21.094
		c1.824,1.971,3.685,3.885,5.566,5.764c-15.51,4.242-50.033,17.042-65.182,49.531c-0.992,2.127-0.071,4.656,2.056,5.648
		c0.581,0.27,1.192,0.399,1.793,0.399c1.601,0,3.134-0.909,3.855-2.455c15.577-33.407,55.719-44.128,64.808-46.161
		c33.127,29.87,73.88,46.134,116.468,46.134c42.596,0,83.356-16.27,116.486-46.15c8.399,1.732,51.189,12.107,67.075,46.178
		c0.721,1.546,2.254,2.455,3.855,2.455c0.601,0,1.212-0.129,1.793-0.399c2.127-0.992,3.048-3.521,2.056-5.648
		c-15.333-32.882-51.63-45.544-67.39-49.609c1.855-1.854,3.689-3.742,5.489-5.686c6.197-6.697,11.906-13.806,17.108-21.245
		c10.409,2.286,51.335,13.208,66.687,46.132c0.721,1.546,2.254,2.455,3.855,2.455c0.601,0,1.212-0.129,1.793-0.399
		c2.128-0.992,3.048-3.521,2.056-5.648c-15.811-33.91-54.307-46.424-69.344-50.116c8.447-13.313,15.317-27.552,20.438-42.323
		c0.044-0.099,0.071-0.205,0.108-0.308c7.008-20.318,10.722-41.627,10.722-62.885c0-16.001-2.101-31.058-6.206-45.021
		c8.584-3.535,34.645-11.341,61.396,9.842c0.781,0.618,1.711,0.918,2.635,0.918c1.254,0,2.496-0.552,3.335-1.612
		C487.985,251.201,487.674,248.528,485.834,247.071z M151.365,139.334c0-50.296,40.919-91.215,91.215-91.215
		s91.215,40.919,91.215,91.215c0,4.656-0.376,9.325-1.083,13.931c-26.108-10.477-56.582-15.913-90.132-15.913
		s-64.023,5.436-90.132,15.913C151.742,148.66,151.365,143.99,151.365,139.334z M407.566,346.153H368.58
		c-2.347,0-4.25,1.903-4.25,4.25s1.903,4.25,4.25,4.25h35.953c-6.115,15.922-14.331,30.895-24.235,44.5H305.58
		c-2.347,0-4.25,1.903-4.25,4.25s1.903,4.25,4.25,4.25h68.17c-31.609,38.746-77.479,64.494-126.92,65.896V161.222
		c0-2.347-1.903-4.25-4.25-4.25c-2.347,0-4.25,1.903-4.25,4.25v312.327c-38.339-1.087-74.528-16.821-103.589-41.896h36.902
		c2.347,0,4.25-1.903,4.25-4.25s-1.903-4.25-4.25-4.25h-46.119c-21.587-21.267-38.424-47.954-48.09-77.5H190.58
		c2.347,0,4.25-1.903,4.25-4.25s-1.903-4.25-4.25-4.25H74.874c-2.115-7.677-3.742-15.525-4.851-23.5h54.557
		c2.347,0,4.25-1.903,4.25-4.25s-1.903-4.25-4.25-4.25H69.047c-0.489-5.368-0.753-10.783-0.753-16.238
		c0-24.673,4.928-45.63,13.554-63.262H206.58c2.347,0,4.25-1.903,4.25-4.25s-1.903-4.25-4.25-4.25H86.455
		c30.534-51.413,94.851-71.301,156.125-71.301c58.832,0,120.47,18.333,152.317,65.301h-95.986c-2.347,0-4.25,1.903-4.25,4.25
		s1.903,4.25,4.25,4.25h101.241c6.207,11.055,10.89,23.515,13.694,37.5H370.58c-2.347,0-4.25,1.903-4.25,4.25s1.903,4.25,4.25,4.25
		h44.714c1.032,7.358,1.573,15.106,1.573,23.262C416.867,308.683,413.573,327.962,407.566,346.153z"/>
</g>
<g>
</g>
<g>
</g>
<g>
</g>
<g>
</g>
<g>
</g>
<g>
</g>
<g>
</g>
<g>
</g>
<g>
</g>
<g>
</g>
<g>
</g>
<g>
</g>
<g>
</g>
<g>
</g>
<g>
</g>
</svg>
