<?xml version="1.0" encoding="iso-8859-1"?>
<!-- Generator: Adobe Illustrator 18.0.0, SVG Export Plug-In . SVG Version: 6.00 Build 0)  -->
<!DOCTYPE svg PUBLIC "-//W3C//DTD SVG 1.1//EN" "http://www.w3.org/Graphics/SVG/1.1/DTD/svg11.dtd">
<svg version="1.1" id="Capa_1" xmlns="http://www.w3.org/2000/svg" xmlns:xlink="http://www.w3.org/1999/xlink" x="0px" y="0px"
	 viewBox="0 0 498.5 498.5" style="enable-background:new 0 0 498.5 498.5;" xml:space="preserve">
<path d="M484.25,118.438H370.5V60.813c0-7.857-6.393-14.25-14.25-14.25h-214c-7.857,0-14.25,6.393-14.25,14.25v57.625H14.25
	c-7.857,0-14.25,6.393-14.25,14.25v305c0,7.857,6.393,14.25,14.25,14.25h470c7.857,0,14.25-6.393,14.25-14.25v-305
	C498.5,124.83,492.107,118.438,484.25,118.438z M454.5,413.563H324.977c-2.348,0-4.25,1.902-4.25,4.25s1.902,4.25,4.25,4.25H454.5
	v21.375H44V339.063h136.977c2.348,0,4.25-1.902,4.25-4.25s-1.902-4.25-4.25-4.25H44v-63.625h48.201v21.992
	c0,6.433,5.233,11.666,11.666,11.666h26.697c6.433,0,11.666-5.233,11.666-11.666v-21.992h214.042v21.992
	c0,6.433,5.233,11.666,11.666,11.666h26.697c6.433,0,11.666-5.233,11.666-11.666v-21.992H454.5V413.563z M100.701,288.93v-45.236
	c0-1.746,1.42-3.166,3.166-3.166h26.697c1.746,0,3.166,1.42,3.166,3.166v45.236c0,1.746-1.42,3.166-3.166,3.166h-26.697
	C102.121,292.096,100.701,290.676,100.701,288.93z M364.772,288.93v-45.236c0-1.746,1.42-3.166,3.166-3.166h26.697
	c1.746,0,3.166,1.42,3.166,3.166v45.236c0,1.746-1.42,3.166-3.166,3.166h-26.697C366.192,292.096,364.772,290.676,364.772,288.93z
	 M406.302,258.438v-14.744c0-6.433-5.233-11.666-11.666-11.666h-26.697c-6.433,0-11.666,5.233-11.666,11.666v14.744H142.23v-14.744
	c0-6.433-5.233-11.666-11.666-11.666h-26.697c-6.433,0-11.666,5.233-11.666,11.666v14.744H8.5v-69.375h82.477
	c2.348,0,4.25-1.902,4.25-4.25s-1.902-4.25-4.25-4.25H8.5v-19.625H490v97.5H406.302z M136.5,60.813c0-3.171,2.579-5.75,5.75-5.75
	h214c3.171,0,5.75,2.579,5.75,5.75v57.625h-13.822v-37.9c0-6.806-5.536-12.342-12.342-12.342H162.664
	c-6.806,0-12.342,5.536-12.342,12.342v37.9H136.5V60.813z M158.822,118.438v-37.9c0-2.118,1.724-3.842,3.842-3.842h173.172
	c2.118,0,3.842,1.724,3.842,3.842v37.9H158.822z M14.25,126.938h470c3.171,0,5.75,2.579,5.75,5.75v19.75H8.5v-19.75
	C8.5,129.517,11.079,126.938,14.25,126.938z M8.5,437.688v-170.75h27v176.5H14.25C11.079,443.438,8.5,440.858,8.5,437.688z
	 M484.25,443.438H463v-176.5h27v170.75C490,440.858,487.421,443.438,484.25,443.438z"/>
<g>
</g>
<g>
</g>
<g>
</g>
<g>
</g>
<g>
</g>
<g>
</g>
<g>
</g>
<g>
</g>
<g>
</g>
<g>
</g>
<g>
</g>
<g>
</g>
<g>
</g>
<g>
</g>
<g>
</g>
</svg>
