<?xml version="1.0" encoding="iso-8859-1"?>
<!-- Generator: Adobe Illustrator 18.0.0, SVG Export Plug-In . SVG Version: 6.00 Build 0)  -->
<!DOCTYPE svg PUBLIC "-//W3C//DTD SVG 1.1//EN" "http://www.w3.org/Graphics/SVG/1.1/DTD/svg11.dtd">
<svg version="1.1" id="Capa_1" xmlns="http://www.w3.org/2000/svg" xmlns:xlink="http://www.w3.org/1999/xlink" x="0px" y="0px"
	 viewBox="0 0 492.643 492.643" style="enable-background:new 0 0 492.643 492.643;" xml:space="preserve">
<g>
	<path d="M478.513,74.138h-42.189V22.614c0-7.792-6.339-14.131-14.131-14.131h-60.271c-7.792,0-14.131,6.339-14.131,14.131v51.523
		H144.851V22.614c0-7.792-6.339-14.131-14.131-14.131H70.449c-7.792,0-14.131,6.339-14.131,14.131v51.523H14.13
		C6.339,74.138,0,80.477,0,88.269v381.76c0,7.792,6.339,14.131,14.13,14.131h464.382c7.791,0,14.13-6.339,14.13-14.131V88.269
		C492.643,80.477,486.304,74.138,478.513,74.138z M356.292,22.614c0-3.104,2.526-5.631,5.631-5.631h60.271
		c3.104,0,5.631,2.526,5.631,5.631v8.467h-35.601c-2.348,0-4.25,1.902-4.25,4.25c0,2.348,1.902,4.25,4.25,4.25h35.601v90.52
		c0,3.104-2.526,5.631-5.631,5.631h-60.271c-3.104,0-5.631-2.526-5.631-5.631V22.614z M70.449,16.983h60.271
		c3.105,0,5.631,2.526,5.631,5.631v107.486c0,3.104-2.526,5.631-5.631,5.631H70.449c-3.105,0-5.631-2.526-5.631-5.631v-19.52h62.405
		c2.347,0,4.25-1.902,4.25-4.25c0-2.348-1.903-4.25-4.25-4.25H64.818V22.614C64.818,19.51,67.344,16.983,70.449,16.983z
		 M14.13,82.638h42.188v47.463c0,7.792,6.339,14.131,14.131,14.131h60.271c7.792,0,14.131-6.339,14.131-14.131V82.638h202.941
		v12.443h-96.568c-2.348,0-4.25,1.902-4.25,4.25c0,2.348,1.902,4.25,4.25,4.25h96.568v26.52c0,7.792,6.339,14.131,14.131,14.131
		h60.271c7.792,0,14.131-6.339,14.131-14.131V82.638h42.189c3.104,0,5.63,2.526,5.63,5.631v96.813h-85.919
		c-2.348,0-4.25,1.902-4.25,4.25c0,2.348,1.902,4.25,4.25,4.25h85.919v12.5H8.5v-27.5h157.724c2.347,0,4.25-1.902,4.25-4.25
		c0-2.348-1.903-4.25-4.25-4.25H8.5V88.269C8.5,85.164,11.026,82.638,14.13,82.638z M478.513,475.659H14.13
		c-3.104,0-5.63-2.526-5.63-5.631v-6.447h136.89c2.347,0,4.25-1.902,4.25-4.25c0-2.348-1.903-4.25-4.25-4.25H8.5v-240.5h475.643
		v255.447C484.143,473.133,481.617,475.659,478.513,475.659z"/>
	<path d="M109.321,242.081h-52c-7.857,0-14.25,6.392-14.25,14.25v52c0,7.857,6.393,14.25,14.25,14.25h52
		c7.857,0,14.25-6.393,14.25-14.25v-52C123.571,248.474,117.179,242.081,109.321,242.081z M115.071,308.331
		c0,3.171-2.58,5.75-5.75,5.75h-52c-3.17,0-5.75-2.579-5.75-5.75v-52c0-3.171,2.58-5.75,5.75-5.75h52c3.17,0,5.75,2.579,5.75,5.75
		V308.331z"/>
	<path d="M217.987,242.081h-52c-7.857,0-14.25,6.392-14.25,14.25v52c0,7.857,6.393,14.25,14.25,14.25h52
		c7.857,0,14.25-6.393,14.25-14.25v-52C232.237,248.474,225.845,242.081,217.987,242.081z M223.737,308.331
		c0,3.171-2.58,5.75-5.75,5.75h-52c-3.17,0-5.75-2.579-5.75-5.75v-52c0-3.171,2.58-5.75,5.75-5.75h52c3.17,0,5.75,2.579,5.75,5.75
		V308.331z"/>
	<path d="M326.655,242.081h-52c-7.857,0-14.25,6.392-14.25,14.25v52c0,7.857,6.393,14.25,14.25,14.25h52
		c7.857,0,14.25-6.393,14.25-14.25v-52C340.905,248.474,334.513,242.081,326.655,242.081z M332.405,308.331
		c0,3.171-2.579,5.75-5.75,5.75h-52c-3.171,0-5.75-2.579-5.75-5.75v-52c0-3.171,2.579-5.75,5.75-5.75h52
		c3.171,0,5.75,2.579,5.75,5.75V308.331z"/>
	<path d="M435.322,242.081h-52c-7.857,0-14.25,6.392-14.25,14.25v52c0,7.857,6.393,14.25,14.25,14.25h52
		c7.857,0,14.25-6.393,14.25-14.25v-52C449.572,248.474,443.18,242.081,435.322,242.081z M441.072,308.331
		c0,3.171-2.579,5.75-5.75,5.75h-52c-3.171,0-5.75-2.579-5.75-5.75v-52c0-3.171,2.579-5.75,5.75-5.75h52
		c3.171,0,5.75,2.579,5.75,5.75V308.331z"/>
	<path d="M109.321,354.081h-52c-7.857,0-14.25,6.392-14.25,14.25v52c0,7.857,6.393,14.25,14.25,14.25h52
		c7.857,0,14.25-6.393,14.25-14.25v-52C123.571,360.474,117.179,354.081,109.321,354.081z M115.071,420.331
		c0,3.171-2.58,5.75-5.75,5.75h-52c-3.17,0-5.75-2.579-5.75-5.75v-52c0-3.171,2.58-5.75,5.75-5.75h52c3.17,0,5.75,2.579,5.75,5.75
		V420.331z"/>
	<path d="M217.987,354.081h-52c-7.857,0-14.25,6.392-14.25,14.25v52c0,7.857,6.393,14.25,14.25,14.25h52
		c7.857,0,14.25-6.393,14.25-14.25v-52C232.237,360.474,225.845,354.081,217.987,354.081z M223.737,420.331
		c0,3.171-2.58,5.75-5.75,5.75h-52c-3.17,0-5.75-2.579-5.75-5.75v-52c0-3.171,2.58-5.75,5.75-5.75h52c3.17,0,5.75,2.579,5.75,5.75
		V420.331z"/>
	<path d="M326.655,354.081h-52c-7.857,0-14.25,6.392-14.25,14.25v52c0,7.857,6.393,14.25,14.25,14.25h52
		c7.857,0,14.25-6.393,14.25-14.25v-52C340.905,360.474,334.513,354.081,326.655,354.081z M332.405,420.331
		c0,3.171-2.579,5.75-5.75,5.75h-52c-3.171,0-5.75-2.579-5.75-5.75v-52c0-3.171,2.579-5.75,5.75-5.75h52
		c3.171,0,5.75,2.579,5.75,5.75V420.331z"/>
	<path d="M435.322,354.081h-52c-7.857,0-14.25,6.392-14.25,14.25v52c0,7.857,6.393,14.25,14.25,14.25h52
		c7.857,0,14.25-6.393,14.25-14.25v-52C449.572,360.474,443.18,354.081,435.322,354.081z M441.072,420.331
		c0,3.171-2.579,5.75-5.75,5.75h-52c-3.171,0-5.75-2.579-5.75-5.75v-52c0-3.171,2.579-5.75,5.75-5.75h52
		c3.171,0,5.75,2.579,5.75,5.75V420.331z"/>
</g>
<g>
</g>
<g>
</g>
<g>
</g>
<g>
</g>
<g>
</g>
<g>
</g>
<g>
</g>
<g>
</g>
<g>
</g>
<g>
</g>
<g>
</g>
<g>
</g>
<g>
</g>
<g>
</g>
<g>
</g>
</svg>
