<?xml version="1.0" encoding="iso-8859-1"?>
<!-- Generator: Adobe Illustrator 18.0.0, SVG Export Plug-In . SVG Version: 6.00 Build 0)  -->
<!DOCTYPE svg PUBLIC "-//W3C//DTD SVG 1.1//EN" "http://www.w3.org/Graphics/SVG/1.1/DTD/svg11.dtd">
<svg version="1.1" id="Capa_1" xmlns="http://www.w3.org/2000/svg" xmlns:xlink="http://www.w3.org/1999/xlink" x="0px" y="0px"
	 viewBox="0 0 490.5 490.5" style="enable-background:new 0 0 490.5 490.5;" xml:space="preserve">
<path d="M366.25,155c-1.288,0-2.605,0.021-3.94,0.064c-10.277-19.762-25.602-36.476-44.464-48.458
	C297.655,93.78,274.281,87,250.25,87c-22.388,0-44.381,5.938-63.605,17.174c-17.895,10.46-33.031,25.251-43.91,42.881
	c-0.865-0.037-1.683-0.055-2.485-0.055C103.72,147,74,176.72,74,213.25c0,0.113,0,0.227,0.001,0.342
	C30.908,223.785,0,262.603,0,307.25c0,53.072,43.178,96.25,96.25,96.25h270c68.512,0,124.25-55.738,124.25-124.25
	S434.762,155,366.25,155z M266.264,96.578l-0.002,73.732c0,1.719,1.035,3.269,2.623,3.927c1.59,0.657,3.417,0.295,4.632-0.922
	l31.067-31.065l18.655,18.655c1.146,1.146,1.778,2.67,1.778,4.29s-0.632,3.144-1.778,4.291l-69.075,69.072
	c-1.145,1.146-2.669,1.777-4.29,1.777c-1.621,0-3.144-0.631-4.291-1.777l-69.072-69.073c-1.146-1.146-1.777-2.669-1.777-4.29
	c0-1.62,0.631-3.145,1.777-4.291l18.651-18.652l31.069,31.068c1.215,1.216,3.044,1.58,4.631,0.922
	c1.589-0.658,2.624-2.208,2.624-3.927V96.729c5.515-0.803,11.113-1.229,16.764-1.229C255.665,95.5,261.011,95.871,266.264,96.578z
	 M230.867,346.263c-1.589-0.657-3.417-0.295-4.632,0.922l-31.067,31.066l-18.655-18.655c-1.146-1.147-1.778-2.67-1.778-4.29
	c0-1.62,0.632-3.144,1.778-4.291l69.075-69.072c1.146-1.147,2.67-1.778,4.29-1.778s3.144,0.632,4.291,1.778l69.072,69.073
	c1.146,1.146,1.777,2.669,1.777,4.29c0,1.62-0.631,3.145-1.777,4.291l-18.651,18.652l-31.069-31.068
	c-1.215-1.216-3.044-1.579-4.631-0.922c-1.589,0.658-2.624,2.208-2.624,3.927V395h-32.777l0.002-44.81
	C233.49,348.471,232.455,346.921,230.867,346.263z M366.25,395h-91.484v-34.554l26.819,26.818c0.797,0.798,1.878,1.245,3.005,1.245
	c1.127,0,2.208-0.448,3.005-1.245l21.656-21.658c2.752-2.751,4.268-6.409,4.268-10.301c0.001-3.892-1.516-7.551-4.268-10.301
	l-69.071-69.072c-2.752-2.753-6.41-4.268-10.302-4.268s-7.55,1.516-10.301,4.268l-69.074,69.071
	c-2.753,2.752-4.268,6.41-4.268,10.302s1.516,7.55,4.268,10.301l21.66,21.66c1.658,1.66,4.352,1.66,6.01,0l26.817-26.816
	L224.988,395H96.25c-37.988,0-70.411-24.266-82.594-58.11h86.676c2.348,0,4.25-1.902,4.25-4.25c0-2.348-1.902-4.25-4.25-4.25H11.08
	c-1.682-6.773-2.58-13.853-2.58-21.14c0-0.791,0.031-1.575,0.053-2.361h21.779c2.348,0,4.25-1.902,4.25-4.25
	c0-2.348-1.902-4.25-4.25-4.25H9.188c4.631-37.088,32.639-67.866,70.007-75.227c2.087-0.411,3.548-2.301,3.421-4.424
	c-0.077-1.298-0.115-2.438-0.115-3.488c0-2.38,0.162-4.722,0.443-7.027h55.389c2.348,0,4.25-1.902,4.25-4.25
	c0-2.348-1.902-4.25-4.25-4.25H84.638c6.801-24.323,29.148-42.223,55.612-42.223c1.348,0,2.77,0.061,4.473,0.19
	c1.617,0.131,3.164-0.683,3.986-2.081c16.741-28.44,44.697-48.316,76.277-55.321v61.767l-26.819-26.818
	c-0.797-0.798-1.878-1.245-3.005-1.245c-1.127,0-2.208,0.448-3.005,1.245l-21.656,21.658c-2.752,2.751-4.268,6.409-4.268,10.301
	c-0.001,3.892,1.516,7.551,4.268,10.301l69.071,69.072c2.752,2.752,6.41,4.268,10.302,4.268c3.892,0,7.55-1.516,10.301-4.268
	l69.074-69.071c2.753-2.751,4.269-6.41,4.269-10.302s-1.516-7.551-4.269-10.301l-21.66-21.66c-1.66-1.66-4.352-1.66-6.01,0
	l-26.817,26.815l0.002-62.017c34.978,7.332,64.891,30.193,81.18,63.271c0.751,1.525,2.321,2.45,4.038,2.366
	c2.133-0.113,4.241-0.171,6.269-0.171c56.163,0,103.104,40.209,113.566,93.351h-23.695c-2.348,0-4.25,1.902-4.25,4.25
	c0,2.348,1.902,4.25,4.25,4.25h25.041c0.549,4.559,0.838,9.195,0.838,13.899c0,12.492-1.997,24.525-5.676,35.806H396.93
	c-2.348,0-4.25,1.902-4.25,4.25c0,2.348,1.902,4.25,4.25,4.25h76.249C455.752,365.459,414.389,395,366.25,395z"/>
<g>
</g>
<g>
</g>
<g>
</g>
<g>
</g>
<g>
</g>
<g>
</g>
<g>
</g>
<g>
</g>
<g>
</g>
<g>
</g>
<g>
</g>
<g>
</g>
<g>
</g>
<g>
</g>
<g>
</g>
</svg>
