<?xml version="1.0" encoding="iso-8859-1"?>
<!-- Generator: Adobe Illustrator 18.0.0, SVG Export Plug-In . SVG Version: 6.00 Build 0)  -->
<!DOCTYPE svg PUBLIC "-//W3C//DTD SVG 1.1//EN" "http://www.w3.org/Graphics/SVG/1.1/DTD/svg11.dtd">
<svg version="1.1" id="Capa_1" xmlns="http://www.w3.org/2000/svg" xmlns:xlink="http://www.w3.org/1999/xlink" x="0px" y="0px"
	 viewBox="0 0 490.976 490.976" style="enable-background:new 0 0 490.976 490.976;" xml:space="preserve">
<g>
	<path d="M299.942,254.195c10.49-19.722,16.506-43.337,16.506-64.791c0-24.188-7.626-44.075-22.052-57.515
		c-13.24-12.333-31.522-18.853-52.871-18.852c-21.349,0-39.63,6.519-52.869,18.852c-14.427,13.439-22.053,33.327-22.053,57.515
		c0,21.454,6.016,45.069,16.505,64.791c8.249,15.51,18.641,27.639,30.043,35.277c-37.562,7.13-71.381,28.366-94.24,59.582
		c-0.946,1.291-1.086,3.005-0.361,4.433c0.724,1.429,2.189,2.328,3.79,2.328l238.372-0.002c1.602,0,3.066-0.899,3.79-2.328
		c0.725-1.428,0.585-3.142-0.361-4.433c-22.859-31.215-56.68-52.45-94.241-59.58C281.302,281.834,291.693,269.705,299.942,254.195z
		 M254.728,287.796c-1.863,0.68-3.009,2.558-2.76,4.525c0.249,1.968,1.826,3.502,3.8,3.696
		c37.573,3.704,72.197,22.257,96.248,51.296l-220.979,0.002c4.945-5.972,10.345-11.492,16.118-16.539h107.177
		c2.348,0,4.25-1.902,4.25-4.25c0-2.348-1.902-4.25-4.25-4.25h-96.465c20.269-14.571,44.175-23.771,69.417-26.259
		c1.974-0.194,3.551-1.728,3.8-3.696c0.249-1.968-0.896-3.846-2.76-4.525c-28.848-10.53-53.22-55.588-53.22-98.392
		c0-50.038,34.312-67.866,66.422-67.866c19.16,0,35.439,5.729,47.077,16.571c7.808,7.273,13.337,16.816,16.433,28.167h-67.704
		c-2.348,0-4.25,1.902-4.25,4.25c0,2.348,1.902,4.25,4.25,4.25h69.507c0.727,4.641,1.11,9.519,1.11,14.628
		C307.948,232.208,283.576,277.265,254.728,287.796z"/>
	<path d="M206.872,411.711c-77.148-17.957-131.028-85.9-131.028-165.227c0-72.448,47.172-137.744,115.406-160.782v10.516
		c0,1.593,0.891,3.052,2.307,3.779c1.415,0.729,3.12,0.604,4.416-0.322l64.292-45.984c1.115-0.798,1.777-2.085,1.777-3.457
		s-0.662-2.659-1.777-3.457L197.973,0.793c-1.296-0.926-3.001-1.051-4.416-0.322c-1.416,0.728-2.307,2.186-2.307,3.779v17.534
		C142.196,33.595,97.754,61.682,65.794,101.14c-33.158,40.94-51.419,92.558-51.419,145.344c0,54.672,19.44,107.714,54.741,149.355
		c34.891,41.159,83.21,68.948,136.056,78.246c0.245,0.043,0.491,0.064,0.736,0.064c0.991,0,1.961-0.348,2.732-0.995
		c0.962-0.808,1.518-1.999,1.518-3.255v-54.05C210.158,413.875,208.796,412.159,206.872,411.711z M22.875,246.484
		c0-103.227,72.991-194.564,173.558-217.18c1.94-0.437,3.317-2.158,3.317-4.146V12.515l52.736,37.719l-52.736,37.72v-8.064
		c0-1.343-0.635-2.607-1.713-3.409c-1.078-0.803-2.471-1.048-3.757-0.662c-35.941,10.769-68.26,33.271-91.002,63.361
		C79.77,170.283,67.344,207.39,67.344,246.484c0,40.458,13.933,80.068,39.231,111.536c24.21,30.113,57.87,51.742,95.083,61.171
		v22.812c-92.842-18.747-159.7-100.168-159.7-195.519c0-2.348-1.902-4.25-4.25-4.25c-2.348,0-4.25,1.902-4.25,4.25
		c0,49.203,17.496,96.94,49.266,134.418c30.626,36.127,72.749,60.801,118.934,69.761v14.116
		C97.759,444.083,22.875,353.08,22.875,246.484z"/>
	<path d="M421.86,97.129C386.97,55.97,338.65,28.181,285.805,18.883c-1.235-0.217-2.506,0.123-3.469,0.931
		c-0.962,0.808-1.518,1.999-1.518,3.255v54.05c0,1.976,1.362,3.691,3.286,4.14c77.147,17.957,131.028,85.9,131.028,165.227
		c0,72.47-47.194,137.773-115.457,160.799v-12.524c0-1.593-0.891-3.052-2.307-3.779c-1.416-0.729-3.12-0.604-4.416,0.322
		l-64.292,45.983c-1.115,0.798-1.777,2.085-1.777,3.457s0.662,2.659,1.777,3.457l64.292,45.984c0.735,0.525,1.602,0.793,2.473,0.793
		c0.664,0,1.331-0.155,1.943-0.471c1.416-0.728,2.307-2.186,2.307-3.779v-15.529c49.066-11.803,93.521-39.887,125.49-79.35
		c33.169-40.943,51.436-92.567,51.436-145.363C476.602,191.812,457.161,138.77,421.86,97.129z M294.494,463.676
		c-1.939,0.436-3.318,2.158-3.318,4.147v10.64l-52.736-37.72l52.736-37.719v10.071c0,1.343,0.635,2.607,1.712,3.409
		c1.078,0.803,2.471,1.048,3.757,0.662c35.954-10.761,68.285-33.261,91.037-63.355c23.52-31.109,35.951-68.222,35.951-107.326
		c0-40.458-13.933-80.068-39.231-111.536c-24.21-30.113-57.869-51.742-95.083-61.171V51.551
		c92.559,18.696,159.211,99.872,159.211,194.934c0,2.348,1.902,4.25,4.25,4.25c2.348,0,4.25-1.902,4.25-4.25
		c0-49.064-17.446-96.664-49.126-134.034c-30.536-36.022-72.536-60.624-118.585-69.561v-14.7
		c103.899,20.696,178.783,111.699,178.783,218.295C468.102,349.734,395.089,441.076,294.494,463.676z"/>
</g>
<g>
</g>
<g>
</g>
<g>
</g>
<g>
</g>
<g>
</g>
<g>
</g>
<g>
</g>
<g>
</g>
<g>
</g>
<g>
</g>
<g>
</g>
<g>
</g>
<g>
</g>
<g>
</g>
<g>
</g>
</svg>
