<?xml version="1.0" encoding="iso-8859-1"?>
<!-- Generator: Adobe Illustrator 18.0.0, SVG Export Plug-In . SVG Version: 6.00 Build 0)  -->
<!DOCTYPE svg PUBLIC "-//W3C//DTD SVG 1.1//EN" "http://www.w3.org/Graphics/SVG/1.1/DTD/svg11.dtd">
<svg version="1.1" id="Capa_1" xmlns="http://www.w3.org/2000/svg" xmlns:xlink="http://www.w3.org/1999/xlink" x="0px" y="0px"
	 viewBox="0 0 490.5 490.5" style="enable-background:new 0 0 490.5 490.5;" xml:space="preserve">
<g>
	<path d="M208.561,43.776h35.998c2.348,0,4.25-1.903,4.25-4.25c0-2.347-1.902-4.25-4.25-4.25h-35.998c-2.347,0-4.25,1.903-4.25,4.25
		C204.311,41.874,206.214,43.776,208.561,43.776z"/>
	<path d="M458.885,443.166h-95.472c-2.454-5.866-8.25-10-14.996-10h-24.75V415.95l108.397-64.177
		c1.292-0.765,2.085-2.155,2.085-3.657V299.14c35.326-23.071,56.352-61.783,56.352-104.056c0-68.512-55.738-124.25-124.25-124.25
		c-1.288,0-2.605,0.021-3.939,0.064c-10.278-19.761-25.603-36.475-44.465-48.457C297.655,9.614,274.281,2.834,250.25,2.834
		c-22.387,0-44.381,5.938-63.604,17.173c-17.896,10.46-33.032,25.251-43.911,42.882c-0.865-0.037-1.683-0.055-2.486-0.055
		c-36.53,0-66.25,29.72-66.25,66.25c0,0.113,0,0.227,0.001,0.341C30.909,139.62,0,178.438,0,223.084
		c0,53.072,43.178,96.25,96.25,96.25h72.278v28.782c0,1.502,0.793,2.892,2.085,3.657l106.554,63.086v18.306h-24.75
		c-6.746,0-12.543,4.134-14.997,10h-95.47c-2.347,0-4.25,1.903-4.25,4.25v27.333c0,2.347,1.903,4.25,4.25,4.25h96.105
		c2.73,5.148,8.14,8.667,14.362,8.667h96c6.222,0,11.632-3.518,14.361-8.667h96.107c2.348,0,4.25-1.903,4.25-4.25v-27.333
		C463.135,445.069,461.232,443.166,458.885,443.166z M305.588,416.776V286.799l120.061-71.082v80.864
		c-0.008,0.124-0.003,0.248,0,0.372v48.74L305.588,416.776z M301.338,279.437L181.12,208.262l120.218-71.176l120.219,71.176
		L301.338,279.437z M96.25,310.834c-48.386,0-87.75-39.364-87.75-87.75c0-41.689,29.557-77.796,70.33-86.008h64.516
		c2.347,0,4.25-1.903,4.25-4.25c0-2.347-1.903-4.25-4.25-4.25H82.513c0.275-31.609,26.064-57.242,57.737-57.242
		c1.348,0,2.769,0.061,4.473,0.191c1.622,0.123,3.164-0.684,3.986-2.082c21.1-35.843,60.008-58.109,101.541-58.109
		c26.453,0,51.287,8.646,71.35,23.942h-47.042c-2.348,0-4.25,1.903-4.25,4.25c0,2.347,1.902,4.25,4.25,4.25h56.997
		c9.823,9.405,18.117,20.625,24.39,33.362c0.752,1.526,2.329,2.454,4.038,2.367c2.132-0.113,4.24-0.171,6.268-0.171
		c63.825,0,115.75,51.925,115.75,115.75c0,37.492-17.749,71.984-47.852,93.756v-80.578c0-1.518-0.801-2.84-1.998-3.591
		c-0.032-0.022-0.051-0.044-0.087-0.066l-128.561-76.115c-1.334-0.79-2.996-0.79-4.33,0l-128.56,76.115v0.018
		c-1.243,0.741-2.085,2.086-2.085,3.639v63.252H90.849c-2.347,0-4.25,1.903-4.25,4.25c0,2.347,1.903,4.25,4.25,4.25h77.679v30.82
		H96.25z M177.028,266.953l71.888,42.561c0.68,0.402,1.425,0.593,2.161,0.593c1.452,0,2.867-0.745,3.661-2.085
		c1.195-2.02,0.527-4.626-1.492-5.822l-76.218-45.125v-41.358l120.06,71.082v129.978l-120.06-71.083V266.953z M146.2,451.666h89.967
		v18.833H146.2V451.666z M356.167,471.416c0,4.274-3.477,7.75-7.75,7.75h-96c-4.273,0-7.751-3.476-7.751-7.75v-22
		c0-4.273,3.477-7.75,7.751-7.75h29c2.348,0,4.25-1.903,4.25-4.25v-17.523l13.506,7.996c0.667,0.395,1.416,0.593,2.165,0.593
		c0.749,0,1.498-0.198,2.165-0.593l11.664-6.906v16.433c0,2.347,1.902,4.25,4.25,4.25h29c4.273,0,7.75,3.477,7.75,7.75V471.416z
		 M454.635,470.499h-89.968v-18.833h89.968V470.499z"/>
</g>
<g>
</g>
<g>
</g>
<g>
</g>
<g>
</g>
<g>
</g>
<g>
</g>
<g>
</g>
<g>
</g>
<g>
</g>
<g>
</g>
<g>
</g>
<g>
</g>
<g>
</g>
<g>
</g>
<g>
</g>
</svg>
