<?xml version="1.0" encoding="iso-8859-1"?>
<!-- Generator: Adobe Illustrator 18.0.0, SVG Export Plug-In . SVG Version: 6.00 Build 0)  -->
<!DOCTYPE svg PUBLIC "-//W3C//DTD SVG 1.1//EN" "http://www.w3.org/Graphics/SVG/1.1/DTD/svg11.dtd">
<svg version="1.1" id="Capa_1" xmlns="http://www.w3.org/2000/svg" xmlns:xlink="http://www.w3.org/1999/xlink" x="0px" y="0px"
	 viewBox="0 0 488.477 488.477" style="enable-background:new 0 0 488.477 488.477;" xml:space="preserve">
<g>
	<path d="M472.227,35.998H16.25C7.29,35.998,0,43.288,0,52.248v383.98c0,8.96,7.29,16.25,16.25,16.25h455.977
		c8.96,0,16.25-7.29,16.25-16.25V52.248C488.477,43.288,481.187,35.998,472.227,35.998z M8.5,389.713h41.627
		c2.347,0,4.25-1.902,4.25-4.25c0-2.348-1.903-4.25-4.25-4.25H8.5V136.381h47.627c2.347,0,4.25-1.902,4.25-4.25
		c0-2.348-1.903-4.25-4.25-4.25H8.5v-25.076h471.477v23.742h-53.85c-2.348,0-4.25,1.902-4.25,4.25c0,2.348,1.902,4.25,4.25,4.25
		h53.85v28.166H429.46c-2.348,0-4.25,1.902-4.25,4.25c0,2.348,1.902,4.25,4.25,4.25h50.518v207.5H361.126
		c-2.348,0-4.25,1.902-4.25,4.25c0,2.348,1.902,4.25,4.25,4.25h118.852v23.592H8.5V389.713z M16.25,44.498h455.977
		c4.273,0,7.75,3.476,7.75,7.75v15.057H170.094c-2.347,0-4.25,1.902-4.25,4.25c0,2.348,1.903,4.25,4.25,4.25h309.883v18.5H8.5
		V52.248C8.5,47.975,11.977,44.498,16.25,44.498z M472.227,443.979H16.25c-4.273,0-7.75-3.477-7.75-7.75v-16.424h471.477v16.424
		C479.977,440.502,476.501,443.979,472.227,443.979z"/>
	<path d="M38.094,84.805c8.409,0,15.25-6.841,15.25-15.25s-6.841-15.25-15.25-15.25c-8.409,0-15.25,6.841-15.25,15.25
		S29.685,84.805,38.094,84.805z M38.094,62.805c3.722,0,6.75,3.028,6.75,6.75c0,3.722-3.028,6.75-6.75,6.75
		c-3.722,0-6.75-3.028-6.75-6.75C31.344,65.833,34.372,62.805,38.094,62.805z"/>
	<path d="M80.594,84.805c8.409,0,15.25-6.841,15.25-15.25s-6.841-15.25-15.25-15.25c-8.409,0-15.25,6.841-15.25,15.25
		S72.185,84.805,80.594,84.805z M80.594,62.805c3.722,0,6.75,3.028,6.75,6.75c0,3.722-3.028,6.75-6.75,6.75
		c-3.722,0-6.75-3.028-6.75-6.75C73.844,65.833,76.872,62.805,80.594,62.805z"/>
	<path d="M123.094,84.805c8.409,0,15.25-6.841,15.25-15.25s-6.841-15.25-15.25-15.25c-8.409,0-15.25,6.841-15.25,15.25
		S114.685,84.805,123.094,84.805z M123.094,62.805c3.722,0,6.75,3.028,6.75,6.75c0,3.722-3.028,6.75-6.75,6.75
		c-3.722,0-6.75-3.028-6.75-6.75C116.344,65.833,119.372,62.805,123.094,62.805z"/>
	<path d="M144.566,255.625l76.541-76.542c1.66-1.659,1.66-4.351,0-6.01c-22.049-22.05-51.366-34.193-82.549-34.193
		c-31.184,0-60.502,12.145-82.553,34.195c-22.05,22.05-34.193,51.366-34.193,82.55s12.144,60.5,34.193,82.55
		c22.05,22.051,51.367,34.193,82.551,34.193s60.501-12.143,82.551-34.193c0.797-0.797,1.245-1.878,1.245-3.005
		c0-1.127-0.448-2.208-1.245-3.005L144.566,255.625z M138.556,363.868c-28.173,0-54.7-10.694-74.954-30.155H99.46
		c2.347,0,4.25-1.902,4.25-4.25c0-2.348-1.903-4.25-4.25-4.25H55.644c-16.395-19.468-25.332-43.839-25.332-69.588
		c0-28.913,11.259-56.095,31.704-76.54c20.445-20.445,47.629-31.705,76.542-31.705c27.492,0,53.418,10.18,73.476,28.756
		l-76.483,76.484c-1.66,1.659-1.66,4.351,0,6.01l76.483,76.482C191.976,353.69,166.049,363.868,138.556,363.868z"/>
	<path d="M107.46,185.213c-11.534,0-20.917,9.384-20.917,20.918c0,11.533,9.383,20.916,20.917,20.916s20.917-9.383,20.917-20.916
		C128.377,194.597,118.994,185.213,107.46,185.213z M107.46,218.547c-6.847,0-12.417-5.569-12.417-12.416
		c0-6.848,5.57-12.418,12.417-12.418c6.847,0,12.417,5.57,12.417,12.418C119.877,212.978,114.307,218.547,107.46,218.547z"/>
	<path d="M251.459,224.547c-17.414,0-31.582,14.169-31.582,31.584c0,17.414,14.168,31.582,31.582,31.582
		c17.415,0,31.584-14.168,31.584-31.582C283.043,238.716,268.874,224.547,251.459,224.547z M251.459,279.213
		c-12.727,0-23.082-10.354-23.082-23.082c0-12.729,10.355-23.084,23.082-23.084c12.729,0,23.084,10.355,23.084,23.084
		C274.543,268.859,264.188,279.213,251.459,279.213z"/>
	<path d="M329.126,224.547c-17.414,0-31.582,14.169-31.582,31.584c0,17.414,14.168,31.582,31.582,31.582
		c17.415,0,31.584-14.168,31.584-31.582C360.71,238.716,346.541,224.547,329.126,224.547z M329.126,279.213
		c-12.728,0-23.082-10.354-23.082-23.082c0-12.729,10.354-23.084,23.082-23.084c12.728,0,23.084,10.355,23.084,23.084
		C352.21,268.859,341.854,279.213,329.126,279.213z"/>
	<path d="M406.794,287.713c17.414,0,31.582-14.168,31.582-31.582c0-17.415-14.168-31.584-31.582-31.584
		c-17.415,0-31.584,14.169-31.584,31.584C375.21,273.545,389.378,287.713,406.794,287.713z M406.794,233.047
		c12.728,0,23.082,10.355,23.082,23.084c0,12.728-10.354,23.082-23.082,23.082c-12.728,0-23.084-10.354-23.084-23.082
		C383.71,243.403,394.065,233.047,406.794,233.047z"/>
</g>
<g>
</g>
<g>
</g>
<g>
</g>
<g>
</g>
<g>
</g>
<g>
</g>
<g>
</g>
<g>
</g>
<g>
</g>
<g>
</g>
<g>
</g>
<g>
</g>
<g>
</g>
<g>
</g>
<g>
</g>
</svg>
