<?xml version="1.0" encoding="iso-8859-1"?>
<!-- Generator: Adobe Illustrator 18.0.0, SVG Export Plug-In . SVG Version: 6.00 Build 0)  -->
<!DOCTYPE svg PUBLIC "-//W3C//DTD SVG 1.1//EN" "http://www.w3.org/Graphics/SVG/1.1/DTD/svg11.dtd">
<svg version="1.1" id="Capa_1" xmlns="http://www.w3.org/2000/svg" xmlns:xlink="http://www.w3.org/1999/xlink" x="0px" y="0px"
	 viewBox="0 0 483.996 483.996" style="enable-background:new 0 0 483.996 483.996;" xml:space="preserve">
<g>
	<path d="M120.096,125.161c1.088,0,2.175-0.415,3.005-1.245c31.553-31.554,73.505-48.932,118.128-48.932
		c44.623,0,86.575,17.377,118.129,48.93c1.658,1.66,4.352,1.66,6.01,0c1.66-1.659,1.66-4.351,0-6.01
		c-33.158-33.159-77.245-51.42-124.139-51.42c-46.893,0-90.98,18.262-124.139,51.422c-1.66,1.659-1.66,4.351,0,6.01
		C117.92,124.746,119.008,125.161,120.096,125.161z"/>
	<path d="M189.576,184.384c-1.66-1.66-4.352-1.66-6.01-0.001c-15.405,15.402-23.889,35.88-23.89,57.661
		c-0.001,21.781,8.481,42.259,23.884,57.66c0.83,0.83,1.917,1.245,3.005,1.245c1.088,0,2.175-0.415,3.005-1.245
		c1.66-1.659,1.66-4.351-0.001-6.01c-13.797-13.797-21.395-32.14-21.394-51.65c0.001-19.511,7.601-37.854,21.4-51.649
		C191.236,188.734,191.236,186.044,189.576,184.384z"/>
	<path d="M313.758,169.516c-19.372-19.373-45.13-30.042-72.527-30.042c-27.398,0-53.156,10.669-72.529,30.042
		c-19.373,19.373-30.043,45.131-30.043,72.528s10.669,53.155,30.043,72.528c19.373,19.373,45.131,30.042,72.529,30.042
		c27.398,0,53.155-10.669,72.527-30.042C353.751,274.58,353.751,209.508,313.758,169.516z M307.748,308.563
		c-17.768,17.767-41.391,27.552-66.518,27.552c-25.127,0-48.75-9.784-66.518-27.552c-17.768-17.768-27.553-41.392-27.553-66.519
		s9.785-48.751,27.553-66.519c17.768-17.768,41.391-27.552,66.519-27.552c25.126,0,48.749,9.784,66.517,27.552
		C344.426,212.204,344.426,271.884,307.748,308.563z"/>
	<path d="M479.571,420.431l-39.444-39.445l5.194-5.195c3.535-3.535,3.541-9.28,0.014-12.808l-20.039-20.038
		c7.952-14.239,14.218-29.359,18.662-45.035h28.329c4.989,0,9.049-4.066,9.049-9.065v-97.172c0-4.999-4.059-9.065-9.047-9.065
		h-28.33c-4.45-15.685-10.716-30.805-18.663-45.035l20.037-20.037c1.712-1.711,2.652-3.987,2.647-6.41
		c-0.004-2.416-0.948-4.688-2.659-6.397l-68.709-68.712c-1.71-1.711-3.982-2.655-6.398-2.66c-0.007,0-0.013,0-0.02,0
		c-2.417,0-4.687,0.94-6.391,2.647l-20.04,20.038c-14.231-7.949-29.351-14.216-45.033-18.663V9.047c0-4.988-4.067-9.047-9.066-9.047
		h-97.171c-4.999,0-9.066,4.058-9.066,9.047v28.331c-15.681,4.446-30.799,10.712-45.034,18.662l-20.04-20.038
		c-1.707-1.707-3.976-2.646-6.392-2.646c-0.006,0-0.011,0-0.017,0c-2.417,0.004-4.69,0.949-6.398,2.659l-68.708,68.71
		c-1.712,1.709-2.657,3.982-2.662,6.398c-0.005,2.423,0.935,4.699,2.646,6.41l20.038,20.039
		c-7.947,14.23-14.213,29.352-18.661,45.034H9.869c-4.989,0-9.047,4.067-9.047,9.067v97.17c0,4.999,4.059,9.065,9.047,9.065h28.33
		c4.449,15.685,10.714,30.804,18.662,45.035l-20.037,20.037c-1.712,1.711-2.652,3.987-2.647,6.411c0.004,2.417,0.95,4.69,2.66,6.398
		l68.709,68.71c1.709,1.711,3.982,2.656,6.399,2.66c0.005,0,0.011,0,0.017,0c2.416,0,4.685-0.939,6.392-2.646l20.041-20.038
		c14.233,7.948,29.352,14.214,45.033,18.661v28.329c0,4.989,4.067,9.049,9.066,9.049l97.171-0.002c4.999,0,9.066-4.059,9.066-9.047
		v-28.329c15.686-4.449,30.808-10.716,45.033-18.663l20.039,20.039c1.706,1.707,3.976,2.646,6.392,2.646c0.006,0,0.014,0,0.02,0
		c2.417-0.006,4.689-0.951,6.399-2.661l3.557-3.558l39.444,39.444c2.327,2.328,5.423,3.61,8.715,3.61s6.388-1.282,8.714-3.61
		l42.529-42.528C484.376,433.052,484.376,425.234,479.571,420.431z M426.991,445.85l-19.87-19.87c-1.658-1.66-4.352-1.66-6.01,0
		c-1.66,1.659-1.66,4.351,0,6.01l19.87,19.87l-8.938,8.936l-96.143-96.142c9.626-5.887,18.626-12.95,26.807-21.132
		c2.588-2.588,5.064-5.259,7.428-8.004l80.441,80.459c0.83,0.83,1.918,1.245,3.006,1.245s2.175-0.415,3.005-1.244
		c1.66-1.66,1.66-4.351,0.001-6.011l-81.076-81.094c2.994-3.924,5.773-7.98,8.326-12.157l96.142,96.144L426.991,445.85z
		 M306.628,360.22c-19.786,10.987-42.142,16.837-65.399,16.837c-36.063,0-69.967-14.044-95.468-39.545
		c-25.5-25.5-39.544-59.404-39.544-95.468s14.044-69.968,39.544-95.468c25.5-25.501,59.405-39.545,95.468-39.545
		c36.063,0,69.968,14.044,95.469,39.544c25.5,25.501,39.544,59.405,39.544,95.469c0,23.258-5.85,45.613-16.838,65.4
		c-0.055,0.081-0.092,0.17-0.141,0.255c-6.026,10.797-13.581,20.828-22.565,29.813c-8.98,8.98-19.008,16.533-29.8,22.559
		C306.808,360.122,306.715,360.162,306.628,360.22z M370.601,438.489c-0.141,0.141-0.298,0.171-0.405,0.171
		c-0.001,0-0.001,0-0.002,0c-0.148,0-0.276-0.053-0.381-0.156l-22.33-22.33c-1.362-1.364-3.471-1.638-5.136-0.673
		c-15.336,8.885-31.799,15.71-48.937,20.285c-0.015,0.004-0.03,0.008-0.046,0.012c-0.137,0.037-0.273,0.081-0.402,0.129
		c-1.854,0.695-2.945,2.553-2.732,4.45v31.09c0,0.302-0.254,0.547-0.566,0.547l-97.171,0.002c-0.312,0-0.566-0.246-0.566-0.549
		V440.31c0.198-2.044-1.108-3.971-3.136-4.512c-17.152-4.574-33.639-11.406-49.002-20.307c-1.831-1.061-4.137-0.605-5.435,1.005
		l-22.011,22.008c-0.104,0.103-0.232,0.156-0.382,0.156c0,0-0.001,0-0.001,0c-0.107,0-0.263-0.029-0.403-0.169l-68.711-68.713
		c-0.14-0.139-0.169-0.296-0.169-0.403c0-0.15,0.052-0.278,0.157-0.383l22.032-22.032c1.431-1.175,1.965-3.188,1.207-4.957
		c-0.074-0.173-0.169-0.357-0.265-0.519c-8.868-15.32-15.68-31.759-20.249-48.862c-0.015-0.059-0.031-0.116-0.047-0.173
		c-0.573-1.959-2.446-3.207-4.437-3.04H9.869c-0.302,0-0.547-0.254-0.547-0.565v-15.817h25.585c2.347,0,4.25-1.902,4.25-4.25
		c0-2.348-1.903-4.25-4.25-4.25H9.321v-72.853c0-0.313,0.246-0.567,0.547-0.567h31.569c1.925,0,3.61-1.294,4.107-3.154
		c4.573-17.141,11.399-33.615,20.29-48.965c0.965-1.666,0.689-3.773-0.672-5.135l-22.328-22.329
		c-0.104-0.104-0.157-0.233-0.157-0.383c0-0.106,0.029-0.263,0.171-0.404l68.71-68.713c0.139-0.139,0.295-0.168,0.402-0.168
		c0,0,0.001,0,0.001,0c0.149,0,0.278,0.053,0.382,0.156l22.331,22.329c1.361,1.362,3.468,1.638,5.135,0.673
		c15.359-8.897,31.839-15.725,48.982-20.296c2.028-0.541,3.334-2.468,3.136-4.512V9.047c0-0.302,0.254-0.547,0.566-0.547h97.171
		c0.313,0,0.566,0.245,0.566,0.547v31.091c-0.213,1.897,0.879,3.755,2.732,4.45c0.083,0.031,0.174,0.062,0.262,0.089
		c0.084,0.025,0.167,0.049,0.251,0.069c17.107,4.572,33.55,11.392,48.873,20.268c1.664,0.964,3.772,0.69,5.135-0.673l22.333-22.331
		c0.103-0.104,0.229-0.155,0.378-0.155c0.001,0,0.001,0,0.002,0c0.107,0,0.266,0.03,0.406,0.17l68.709,68.713
		c0.14,0.139,0.169,0.296,0.169,0.402c0.001,0.149-0.053,0.278-0.157,0.384l-22.328,22.328c-1.362,1.361-1.638,3.469-0.673,5.135
		c8.89,15.35,15.717,31.824,20.292,48.966c0.497,1.86,2.182,3.154,4.106,3.154h31.568c0.302,0,0.547,0.254,0.547,0.565v25.855
		H432.31c-2.348,0-4.25,1.902-4.25,4.25c0,2.348,1.902,4.25,4.25,4.25h40.525v62.817c0,0.312-0.246,0.565-0.549,0.565h-31.146
		c-2.052-0.19-3.985,1.117-4.523,3.135c-4.568,17.138-11.397,33.619-20.296,48.985c-0.965,1.667-0.689,3.773,0.673,5.135
		l22.33,22.328c0.213,0.214,0.207,0.567-0.014,0.788l-5.194,5.195l-65.913-65.914c10.804-20.407,16.538-43.271,16.538-67.018
		c0-38.334-14.928-74.373-42.034-101.479c-27.106-27.106-63.146-42.034-101.479-42.034c-38.333,0-74.372,14.929-101.478,42.035
		c-27.106,27.104-42.034,63.143-42.034,101.477s14.928,74.373,42.034,101.477c27.106,27.107,63.145,42.035,101.478,42.035
		c23.747,0,46.61-5.734,67.018-16.538l65.912,65.912L370.601,438.489z M473.561,431.848l-42.529,42.528
		c-1.443,1.445-3.962,1.445-5.407,0l-7.571-7.571l47.937-47.935l7.571,7.571C475.052,427.931,475.052,430.356,473.561,431.848z"/>
</g>
<g>
</g>
<g>
</g>
<g>
</g>
<g>
</g>
<g>
</g>
<g>
</g>
<g>
</g>
<g>
</g>
<g>
</g>
<g>
</g>
<g>
</g>
<g>
</g>
<g>
</g>
<g>
</g>
<g>
</g>
</svg>
