<?xml version="1.0" encoding="iso-8859-1"?>
<!-- Generator: Adobe Illustrator 18.0.0, SVG Export Plug-In . SVG Version: 6.00 Build 0)  -->
<!DOCTYPE svg PUBLIC "-//W3C//DTD SVG 1.1//EN" "http://www.w3.org/Graphics/SVG/1.1/DTD/svg11.dtd">
<svg version="1.1" id="Capa_1" xmlns="http://www.w3.org/2000/svg" xmlns:xlink="http://www.w3.org/1999/xlink" x="0px" y="0px"
	 viewBox="0 0 496.5 496.5" style="enable-background:new 0 0 496.5 496.5;" xml:space="preserve">
<g>
	<path d="M52.08,187.29c0-38.576,15.022-74.842,42.299-102.119c1.66-1.66,1.66-4.351,0-6.011c-1.66-1.659-4.351-1.659-6.011,0
		C59.486,108.043,43.58,146.444,43.58,187.29c0,40.846,15.906,79.247,44.789,108.129c0.83,0.83,1.917,1.245,3.005,1.245
		c1.088,0,2.175-0.415,3.005-1.245c1.66-1.66,1.66-4.351,0-6.011C67.102,262.132,52.08,225.865,52.08,187.29z"/>
	<path d="M196.499,61.259c-33.664,0-65.313,13.11-89.117,36.914c-23.804,23.804-36.914,55.454-36.914,89.117
		c0,33.664,13.109,65.313,36.914,89.117c23.804,23.804,55.454,36.913,89.117,36.913s65.312-13.109,89.116-36.913
		c23.805-23.804,36.914-55.454,36.914-89.117c0-33.663-13.109-65.313-36.914-89.117C261.811,74.369,230.163,61.259,196.499,61.259z
		 M265.676,92.252H127.322c19.971-14.602,43.966-22.493,69.177-22.493C221.709,69.759,245.704,77.65,265.676,92.252z
		 M113.393,104.183c1.174-1.174,2.373-2.314,3.587-3.432h159.039c1.214,1.118,2.413,2.258,3.587,3.432
		c18.064,18.064,29.001,40.594,32.824,64.068H287.5v-12.75c0-7.857-6.393-14.25-14.25-14.25h-166c-7.857,0-14.25,6.393-14.25,14.25
		v12.75H80.569C84.391,144.778,95.329,122.247,113.393,104.183z M279,189.502c0,3.171-2.579,5.75-5.75,5.75h-166
		c-3.17,0-5.75-2.579-5.75-5.75v-34c0-3.17,2.58-5.75,5.75-5.75h166c3.171,0,5.75,2.58,5.75,5.75V189.502z M279.605,270.396
		c-22.199,22.199-51.713,34.424-83.106,34.424c-31.394,0-60.908-12.225-83.106-34.424c-5.499-5.5-10.332-11.417-14.511-17.645
		h195.236C289.938,258.98,285.105,264.897,279.605,270.396z M299.315,244.252H93.684c-11.52-20.813-16.246-44.404-14.185-67.5H93
		v12.75c0,7.858,6.393,14.25,14.25,14.25h166c7.857,0,14.25-6.392,14.25-14.25v-12.75h25.999
		C315.56,199.847,310.834,223.439,299.315,244.252z"/>
	<path d="M496.5,172.502c0-2.347-1.902-4.25-4.25-4.25H372.222c-2.547-23.928-9.875-46.804-21.532-67.5h141.56
		c2.348,0,4.25-1.903,4.25-4.25c0-2.347-1.902-4.25-4.25-4.25H345.577c-6.85-10.699-14.904-20.738-24.103-29.937
		c-33.382-33.382-77.766-51.767-124.975-51.767c-47.209,0-91.593,18.384-124.975,51.766c-9.266,9.266-17.274,19.319-24.048,29.937
		H4.25c-2.347,0-4.25,1.903-4.25,4.25c0,2.347,1.903,4.25,4.25,4.25h38.127c-11.826,21.079-18.99,44.084-21.505,67.5H4.25
		c-2.347,0-4.25,1.903-4.25,4.25c0,2.347,1.903,4.25,4.25,4.25h15.914c-1.347,22.748,1.67,45.705,9.053,67.5H4.25
		c-2.347,0-4.25,1.903-4.25,4.25c0,2.347,1.903,4.25,4.25,4.25h28.09c8.611,21.683,21.666,41.996,39.184,59.514
		c33.382,33.382,77.766,51.766,124.976,51.766c29.505,0,57.906-7.181,83.208-20.716l138.458,138.47
		c2.778,2.778,6.427,4.167,10.076,4.167c3.648,0,7.299-1.389,10.076-4.167l52.676-52.676c2.691-2.691,4.174-6.27,4.174-10.076
		c0-3.806-1.482-7.385-4.174-10.077L352.528,270.491c3.08-5.759,5.819-11.683,8.232-17.739h131.49c2.348,0,4.25-1.903,4.25-4.25
		c0-2.347-1.902-4.25-4.25-4.25H363.894c6.142-18.103,9.347-37.285,9.347-56.962c0-3.53-0.115-7.042-0.319-10.538H492.25
		C494.598,176.752,496.5,174.849,496.5,172.502z M486.667,419.033c0,1.536-0.598,2.979-1.684,4.065l-52.676,52.676
		c-2.242,2.242-5.891,2.242-8.133,0.001L414.3,465.9l60.808-60.808l9.875,9.875C486.069,416.053,486.667,417.497,486.667,419.033z
		 M469.098,399.081l-42.296,42.296l-25.547-25.547c-1.66-1.659-4.352-1.659-6.01,0c-1.66,1.66-1.66,4.351,0,6.011l25.546,25.547
		l-12.501,12.502L287.372,338.96c12.268-7.38,23.718-16.311,34.102-26.695c3.445-3.445,6.722-7.015,9.845-10.686l100.427,100.427
		c0.829,0.83,1.917,1.245,3.005,1.245s2.176-0.415,3.005-1.245c1.66-1.66,1.66-4.351,0-6.011L336.698,294.94
		c4.161-5.396,7.994-10.996,11.476-16.784L469.098,399.081z M354.008,246.641c-0.121,0.249-0.219,0.509-0.29,0.783
		c-8.334,21.814-21.247,41.823-38.254,58.831c-31.777,31.777-74.026,49.277-118.965,49.277c-44.939,0-87.189-17.5-118.965-49.277
		c-65.598-65.597-65.598-172.332,0-237.93c31.776-31.777,74.025-49.277,118.964-49.277c44.939,0,87.188,17.501,118.965,49.277
		c31.776,31.776,49.276,74.026,49.276,118.964C364.74,207.89,361.053,227.921,354.008,246.641z"/>
</g>
<g>
</g>
<g>
</g>
<g>
</g>
<g>
</g>
<g>
</g>
<g>
</g>
<g>
</g>
<g>
</g>
<g>
</g>
<g>
</g>
<g>
</g>
<g>
</g>
<g>
</g>
<g>
</g>
<g>
</g>
</svg>
