<?xml version="1.0" encoding="iso-8859-1"?>
<!-- Generator: Adobe Illustrator 18.0.0, SVG Export Plug-In . SVG Version: 6.00 Build 0)  -->
<!DOCTYPE svg PUBLIC "-//W3C//DTD SVG 1.1//EN" "http://www.w3.org/Graphics/SVG/1.1/DTD/svg11.dtd">
<svg version="1.1" id="Capa_1" xmlns="http://www.w3.org/2000/svg" xmlns:xlink="http://www.w3.org/1999/xlink" x="0px" y="0px"
	 viewBox="0 0 488.892 488.892" style="enable-background:new 0 0 488.892 488.892;" xml:space="preserve">
<g>
	<path d="M465.366,244.966l-14.67-8.257V106.608c0-2.347-1.903-4.25-4.25-4.25h-404c-2.347,0-4.25,1.903-4.25,4.25v130.081
		l-14.67,8.276C10.333,252.388,0,270.061,0,285.199v173.53c0,15.858,12.901,28.76,28.76,28.76h431.372
		c15.858,0,28.76-12.901,28.76-28.76v-173.53C488.892,270.061,478.558,252.388,465.366,244.966z M461.198,252.373
		c10.404,5.854,19.194,20.886,19.194,32.825v1.168l-29.696,16.711v-56.615L461.198,252.373z M442.196,110.858v197.003
		L263.721,408.299c-10.448,5.88-28.102,5.88-38.551,0L46.696,307.861V110.858H442.196z M27.698,252.371l10.498-5.922v56.629
		L8.5,286.366v-1.168C8.5,273.26,17.289,258.227,27.698,252.371z M460.132,478.989H28.76c-11.171,0-20.26-9.088-20.26-20.26v-22.538
		h118.946c2.347,0,4.25-1.903,4.25-4.25c0-2.347-1.903-4.25-4.25-4.25H8.5v-24.5h52.946c2.347,0,4.25-1.903,4.25-4.25
		c0-2.347-1.903-4.25-4.25-4.25H8.5V296.12l212.501,119.586c6.573,3.699,15.009,5.549,23.444,5.549s16.871-1.85,23.444-5.549
		L480.392,296.12v96.571h-93.219c-2.347,0-4.25,1.903-4.25,4.25c0,2.347,1.903,4.25,4.25,4.25h93.219v57.538
		C480.392,469.9,471.303,478.989,460.132,478.989z"/>
	<path d="M200.779,180.524h165.333c2.347,0,4.25-1.903,4.25-4.25c0-2.347-1.903-4.25-4.25-4.25H200.779
		c-2.347,0-4.25,1.903-4.25,4.25C196.529,178.621,198.432,180.524,200.779,180.524z"/>
	<path d="M200.779,232.302h165.333c2.347,0,4.25-1.903,4.25-4.25s-1.903-4.25-4.25-4.25H200.779c-2.347,0-4.25,1.903-4.25,4.25
		S198.432,232.302,200.779,232.302z"/>
	<path d="M117.446,282.746h248.667c2.347,0,4.25-1.903,4.25-4.25c0-2.347-1.903-4.25-4.25-4.25H117.446
		c-2.347,0-4.25,1.903-4.25,4.25C113.196,280.844,115.099,282.746,117.446,282.746z"/>
	<path d="M117.446,242.025h61.333c2.347,0,4.25-1.903,4.25-4.25v-61.501c0-2.347-1.903-4.25-4.25-4.25h-61.333
		c-2.347,0-4.25,1.903-4.25,4.25v61.501C113.196,240.122,115.099,242.025,117.446,242.025z M121.696,180.524h52.833v53.001h-52.833
		V180.524z"/>
	<path d="M174.126,81.728c-1.643,1.676-1.617,4.367,0.059,6.01c0.827,0.811,1.901,1.215,2.975,1.215
		c1.102,0,2.203-0.426,3.035-1.274c35.098-35.791,92.77-36.356,128.56-1.259c1.676,1.644,4.367,1.617,6.01-0.059
		c1.643-1.676,1.617-4.367-0.059-6.01C275.57,41.973,212.506,42.591,174.126,81.728z"/>
	<path d="M141.39,53.533c1.102,0,2.203-0.426,3.035-1.274C199.051-3.446,288.816-4.325,344.525,50.3
		c1.677,1.644,4.368,1.617,6.01-0.059c1.643-1.676,1.617-4.367-0.059-6.01c-59.056-57.905-154.212-56.974-212.12,2.077
		c-1.643,1.676-1.617,4.367,0.059,6.01C139.242,53.128,140.316,53.533,141.39,53.533z"/>
</g>
<g>
</g>
<g>
</g>
<g>
</g>
<g>
</g>
<g>
</g>
<g>
</g>
<g>
</g>
<g>
</g>
<g>
</g>
<g>
</g>
<g>
</g>
<g>
</g>
<g>
</g>
<g>
</g>
<g>
</g>
</svg>
