<?xml version="1.0" encoding="iso-8859-1"?>
<!-- Generator: Adobe Illustrator 18.0.0, SVG Export Plug-In . SVG Version: 6.00 Build 0)  -->
<!DOCTYPE svg PUBLIC "-//W3C//DTD SVG 1.1//EN" "http://www.w3.org/Graphics/SVG/1.1/DTD/svg11.dtd">
<svg version="1.1" id="Capa_1" xmlns="http://www.w3.org/2000/svg" xmlns:xlink="http://www.w3.org/1999/xlink" x="0px" y="0px"
	 viewBox="0 0 485.348 485.348" style="enable-background:new 0 0 485.348 485.348;" xml:space="preserve">
<g>
	<path d="M111.142,82.952c-1.644,1.676-1.617,4.366,0.059,6.01c0.827,0.812,1.901,1.216,2.975,1.216
		c1.102,0,2.203-0.426,3.035-1.274c36.32-37.037,95.999-37.62,133.033-1.303c1.676,1.645,4.367,1.618,6.01-0.059
		c1.643-1.676,1.617-4.366-0.059-6.01C215.814,41.933,150.743,42.569,111.142,82.952z"/>
	<path d="M286.841,50.279c1.677,1.645,4.368,1.617,6.01-0.059c1.643-1.676,1.617-4.367-0.059-6.01
		C231.83-15.565,133.599-14.603,73.821,46.354c-1.644,1.676-1.617,4.366,0.059,6.01c0.827,0.812,1.901,1.216,2.975,1.216
		c1.102,0,2.203-0.426,3.035-1.274C136.387-5.307,229.225-6.214,286.841,50.279z"/>
	<path d="M187.722,425.498c-10.567,0-19.164,8.598-19.164,19.165c0,10.567,8.597,19.164,19.164,19.164
		c10.568,0,19.165-8.597,19.165-19.164C206.887,434.096,198.29,425.498,187.722,425.498z M187.722,455.328
		c-5.88,0-10.664-4.784-10.664-10.664c0-5.881,4.784-10.665,10.664-10.665c5.881,0,10.665,4.784,10.665,10.665
		C198.387,450.543,193.603,455.328,187.722,455.328z"/>
	<path d="M401.174,180.073H298.089v-45.457c0-17.947-14.602-32.549-32.549-32.549H109.902c-17.947,0-32.549,14.602-32.549,32.55
		v318.182c0,17.948,14.602,32.55,32.549,32.55H265.54c17.947,0,32.549-14.602,32.549-32.55v-82.716h103.085
		c6.379,0,11.568-5.19,11.568-11.569V191.642C412.742,185.263,407.553,180.073,401.174,180.073z M143.001,361.582l98.862-72.957
		l24.807,21.216c0.795,0.681,1.779,1.021,2.762,1.021c0.983,0,1.966-0.34,2.761-1.018l24.988-21.352l99.051,73.091H143.001z
		 M401.031,188.573L269.434,301.021L161.979,209.12h75.006c2.347,0,4.25-1.902,4.25-4.25c0-2.348-1.903-4.25-4.25-4.25h-84.945
		l-14.085-12.047H401.031z M235.232,282.953l-100.609,74.248V196.907L235.232,282.953z M303.815,282.823l100.427-85.813v63.609
		h-57.257c-2.347,0-4.25,1.902-4.25,4.25c0,2.348,1.903,4.25,4.25,4.25h57.257v87.81L303.815,282.823z M109.902,110.567H265.54
		c11.81,0,21.651,8.56,23.665,19.799l-202.968,0.001C88.251,119.127,98.092,110.567,109.902,110.567z M265.54,476.848H109.902
		c-13.261,0-24.049-10.789-24.049-24.05v-12.58h53.991c2.347,0,4.25-1.902,4.25-4.25c0-2.348-1.903-4.25-4.25-4.25H85.854v-16.759
		h203.735v37.839C289.589,466.059,278.801,476.848,265.54,476.848z M289.589,406.459H85.854v-11.34h57.132
		c2.347,0,4.25-1.902,4.25-4.25c0-2.348-1.903-4.25-4.25-4.25H85.854v-227.5h61.132c2.347,0,4.25-1.902,4.25-4.25
		c0-2.348-1.903-4.25-4.25-4.25H85.854v-11.753l203.735-0.001v41.207H137.691c-6.379,0-11.568,5.191-11.568,11.569v166.871
		c0,6.379,5.189,11.569,11.568,11.569h151.897V406.459z"/>
</g>
<g>
</g>
<g>
</g>
<g>
</g>
<g>
</g>
<g>
</g>
<g>
</g>
<g>
</g>
<g>
</g>
<g>
</g>
<g>
</g>
<g>
</g>
<g>
</g>
<g>
</g>
<g>
</g>
<g>
</g>
</svg>
