<?xml version="1.0" encoding="iso-8859-1"?>
<!-- Generator: Adobe Illustrator 18.0.0, SVG Export Plug-In . SVG Version: 6.00 Build 0)  -->
<!DOCTYPE svg PUBLIC "-//W3C//DTD SVG 1.1//EN" "http://www.w3.org/Graphics/SVG/1.1/DTD/svg11.dtd">
<svg version="1.1" id="Capa_1" xmlns="http://www.w3.org/2000/svg" xmlns:xlink="http://www.w3.org/1999/xlink" x="0px" y="0px"
	 viewBox="0 0 488.477 488.477" style="enable-background:new 0 0 488.477 488.477;" xml:space="preserve">
<g>
	<path d="M472.227,35.998H16.25C7.29,35.998,0,43.288,0,52.248v383.98c0,8.96,7.29,16.25,16.25,16.25h455.977
		c8.96,0,16.25-7.29,16.25-16.25V52.248C488.477,43.288,481.187,35.998,472.227,35.998z M8.5,393.322h30.248
		c2.347,0,4.25-1.902,4.25-4.25c0-2.348-1.903-4.25-4.25-4.25H8.5V135.334h42.928c2.347,0,4.25-1.902,4.25-4.25
		s-1.903-4.25-4.25-4.25H8.5v-24.029h471.477v136.523h-30.249c-2.347,0-4.25,1.902-4.25,4.25c0,2.348,1.903,4.25,4.25,4.25h30.249
		v52.998h-12.25c-2.347,0-4.25,1.902-4.25,4.25c0,2.348,1.903,4.25,4.25,4.25h12.25v101.978H8.5V393.322z M16.25,44.498h455.977
		c4.273,0,7.75,3.477,7.75,7.75v15.057H170.094c-2.347,0-4.25,1.902-4.25,4.25c0,2.348,1.903,4.25,4.25,4.25h309.883v18.5H8.5
		V52.248C8.5,47.975,11.977,44.498,16.25,44.498z M472.227,443.978H16.25c-4.273,0-7.75-3.477-7.75-7.75v-16.424h471.477v16.424
		C479.977,440.502,476.5,443.978,472.227,443.978z"/>
	<path d="M38.094,84.805c8.409,0,15.25-6.841,15.25-15.25s-6.841-15.25-15.25-15.25s-15.25,6.841-15.25,15.25
		S29.685,84.805,38.094,84.805z M38.094,62.805c3.722,0,6.75,3.028,6.75,6.75c0,3.722-3.028,6.75-6.75,6.75
		c-3.722,0-6.75-3.028-6.75-6.75C31.344,65.833,34.372,62.805,38.094,62.805z"/>
	<path d="M80.594,84.805c8.409,0,15.25-6.841,15.25-15.25s-6.841-15.25-15.25-15.25s-15.25,6.841-15.25,15.25
		S72.185,84.805,80.594,84.805z M80.594,62.805c3.722,0,6.75,3.028,6.75,6.75c0,3.722-3.028,6.75-6.75,6.75
		c-3.722,0-6.75-3.028-6.75-6.75C73.844,65.833,76.872,62.805,80.594,62.805z"/>
	<path d="M123.094,84.805c8.409,0,15.25-6.841,15.25-15.25s-6.841-15.25-15.25-15.25s-15.25,6.841-15.25,15.25
		S114.685,84.805,123.094,84.805z M123.094,62.805c3.722,0,6.75,3.028,6.75,6.75c0,3.722-3.028,6.75-6.75,6.75
		c-3.722,0-6.75-3.028-6.75-6.75C116.344,65.833,119.372,62.805,123.094,62.805z"/>
	<path d="M102.738,207.832c-8.822,0-16,7.178-16,16c0,8.822,7.178,16,16,16s16-7.178,16-16
		C118.738,215.01,111.561,207.832,102.738,207.832z M102.738,231.332c-4.136,0-7.5-3.364-7.5-7.5c0-4.136,3.364-7.5,7.5-7.5
		c4.136,0,7.5,3.364,7.5,7.5C110.238,227.968,106.874,231.332,102.738,231.332z"/>
	<path d="M123.738,193.086v-61.652c0-7.857-6.393-14.25-14.25-14.25h-13.5c-7.857,0-14.25,6.393-14.25,14.25v61.652
		c-9.803,6.717-16.25,17.991-16.25,30.746c0,12.755,6.447,24.029,16.25,30.746v129.68c0,7.857,6.393,14.25,14.25,14.25h13.5
		c7.857,0,14.25-6.393,14.25-14.25v-129.68c9.803-6.717,16.25-17.991,16.25-30.746C139.988,211.077,133.542,199.803,123.738,193.086
		z M90.238,131.434c0-3.171,2.58-5.75,5.75-5.75h13.5c3.17,0,5.75,2.579,5.75,5.75v57.313c-3.91-1.396-8.116-2.164-12.5-2.164
		c-4.384,0-8.59,0.768-12.5,2.164V131.434z M115.238,384.258c0,3.171-2.58,5.75-5.75,5.75h-13.5c-3.17,0-5.75-2.579-5.75-5.75
		v-125.34c3.91,1.396,8.116,2.164,12.5,2.164c4.384,0,8.59-0.768,12.5-2.164V384.258z M102.738,252.582
		c-15.853,0-28.75-12.897-28.75-28.75c0-15.853,12.897-28.75,28.75-28.75s28.75,12.897,28.75,28.75
		C131.488,239.685,118.591,252.582,102.738,252.582z"/>
	<path d="M244.238,292.865c-8.822,0-16,7.178-16,16c0,8.822,7.178,16,16,16s16-7.178,16-16
		C260.238,300.043,253.061,292.865,244.238,292.865z M244.238,316.365c-4.136,0-7.5-3.364-7.5-7.5c0-4.136,3.364-7.5,7.5-7.5
		s7.5,3.364,7.5,7.5C251.738,313.001,248.374,316.365,244.238,316.365z"/>
	<path d="M265.238,278.119V131.434c0-7.857-6.393-14.25-14.25-14.25h-13.5c-7.857,0-14.25,6.393-14.25,14.25v146.686
		c-9.803,6.717-16.25,17.991-16.25,30.746c0,12.755,6.447,24.029,16.25,30.746v44.647c0,7.857,6.393,14.25,14.25,14.25h13.5
		c7.857,0,14.25-6.393,14.25-14.25v-44.647c9.803-6.717,16.25-17.991,16.25-30.746C281.488,296.11,275.042,284.836,265.238,278.119z
		 M231.738,131.434c0-3.171,2.58-5.75,5.75-5.75h13.5c3.17,0,5.75,2.579,5.75,5.75v142.346c-3.91-1.396-8.116-2.164-12.5-2.164
		c-4.384,0-8.59,0.768-12.5,2.164V131.434z M256.738,384.258c0,3.171-2.58,5.75-5.75,5.75h-13.5c-3.17,0-5.75-2.579-5.75-5.75
		v-40.307c3.91,1.396,8.116,2.164,12.5,2.164c4.384,0,8.59-0.768,12.5-2.164V384.258z M244.238,337.615
		c-15.853,0-28.75-12.897-28.75-28.75c0-15.853,12.897-28.75,28.75-28.75s28.75,12.897,28.75,28.75
		C272.988,324.718,260.091,337.615,244.238,337.615z"/>
	<path d="M406.738,170.41v-38.977c0-7.857-6.393-14.25-14.25-14.25h-13.5c-7.857,0-14.25,6.393-14.25,14.25v38.977
		c-9.803,6.717-16.25,17.991-16.25,30.746s6.447,24.029,16.25,30.746v152.355c0,7.857,6.393,14.25,14.25,14.25h13.5
		c7.857,0,14.25-6.393,14.25-14.25V231.902c9.803-6.717,16.25-17.991,16.25-30.746S416.542,177.127,406.738,170.41z
		 M373.238,131.434c0-3.171,2.58-5.75,5.75-5.75h13.5c3.17,0,5.75,2.579,5.75,5.75v34.637c-3.91-1.396-8.116-2.164-12.5-2.164
		c-4.384,0-8.59,0.768-12.5,2.164V131.434z M398.238,384.258c0,3.171-2.58,5.75-5.75,5.75h-13.5c-3.17,0-5.75-2.579-5.75-5.75
		V236.242c3.91,1.396,8.116,2.164,12.5,2.164c4.384,0,8.59-0.768,12.5-2.164V384.258z M385.738,229.906
		c-15.853,0-28.75-12.897-28.75-28.75c0-15.853,12.897-28.75,28.75-28.75s28.75,12.897,28.75,28.75
		C414.488,217.009,401.591,229.906,385.738,229.906z"/>
	<path d="M385.738,185.156c-8.822,0-16,7.178-16,16c0,8.822,7.178,16,16,16c8.822,0,16-7.178,16-16
		C401.738,192.334,394.561,185.156,385.738,185.156z M385.738,208.656c-4.136,0-7.5-3.364-7.5-7.5c0-4.136,3.364-7.5,7.5-7.5
		c4.136,0,7.5,3.364,7.5,7.5C393.238,205.292,389.874,208.656,385.738,208.656z"/>
</g>
<g>
</g>
<g>
</g>
<g>
</g>
<g>
</g>
<g>
</g>
<g>
</g>
<g>
</g>
<g>
</g>
<g>
</g>
<g>
</g>
<g>
</g>
<g>
</g>
<g>
</g>
<g>
</g>
<g>
</g>
</svg>
