<?xml version="1.0" encoding="iso-8859-1"?>
<!-- Generator: Adobe Illustrator 18.0.0, SVG Export Plug-In . SVG Version: 6.00 Build 0)  -->
<!DOCTYPE svg PUBLIC "-//W3C//DTD SVG 1.1//EN" "http://www.w3.org/Graphics/SVG/1.1/DTD/svg11.dtd">
<svg version="1.1" id="Capa_1" xmlns="http://www.w3.org/2000/svg" xmlns:xlink="http://www.w3.org/1999/xlink" x="0px" y="0px"
	 viewBox="0 0 473.526 473.526" style="enable-background:new 0 0 473.526 473.526;" xml:space="preserve">
<g>
	<path d="M424.191,381.426c32.277-41.736,49.335-91.698,49.335-144.663c0-63.242-24.628-122.698-69.347-167.417
		C359.461,24.628,300.004,0,236.763,0S114.065,24.628,69.347,69.346C24.628,114.065,0.001,173.521,0.001,236.763
		S24.628,359.461,69.347,404.18c44.718,44.719,104.175,69.346,167.416,69.346c52.274,0,101.811-16.691,143.283-48.267l17.328,17.328
		c0.797,0.797,1.878,1.245,3.005,1.245c1.127,0,2.208-0.448,3.005-1.245l37.978-37.979c1.66-1.66,1.66-4.351,0-6.011
		L424.191,381.426z M236.763,465.026C110.899,465.026,8.5,362.628,8.5,236.763S110.899,8.5,236.763,8.5
		s228.263,102.398,228.263,228.263c0,50.699-16.209,98.544-46.895,138.604l-69.37-69.37l77.371-33.482
		c1.639-0.709,2.659-2.366,2.556-4.148c-0.104-1.782-1.31-3.309-3.02-3.823l-20.205-6.069c0.912-7.162,1.394-14.454,1.394-21.711
		c0-93.79-76.304-170.093-170.093-170.093S66.67,142.974,66.67,236.763s76.304,170.093,170.093,170.093
		c6.741,0,13.508-0.423,20.176-1.21l6.382,21.245c0.514,1.709,2.041,2.916,3.822,3.02c1.806,0.103,3.439-0.917,4.148-2.555
		l33.482-77.371l69.201,69.202C334.181,449.175,286.776,465.026,236.763,465.026z M195.887,202.404l35.78,119.115
		c-44.461-2.646-79.826-39.641-79.826-84.755c0-46.826,38.096-84.921,84.922-84.921c45.659,0,83,36.225,84.834,81.441
		L201.18,197.111c-1.497-0.451-3.122-0.041-4.228,1.065C195.846,199.282,195.437,200.906,195.887,202.404z M330.173,235.859
		c-0.488-51.097-42.199-92.517-93.41-92.517c-51.513,0-93.422,41.909-93.422,93.421c0,50.677,40.559,92.057,90.92,93.388
		l20.196,67.233c-5.856,0.636-11.786,0.972-17.694,0.972c-89.102,0-161.593-72.49-161.593-161.593S147.661,75.17,236.763,75.17
		s161.593,72.49,161.593,161.593c0,6.425-0.404,12.876-1.156,19.23L330.173,235.859z M400.379,433.572l-94.018-94.019
		c-0.804-0.804-1.889-1.245-3.005-1.245c-0.265,0-0.531,0.025-0.796,0.075c-1.383,0.264-2.546,1.195-3.104,2.487l-31.343,72.429
		L206.3,207.524l205.775,61.813l-72.429,31.343c-1.292,0.559-2.224,1.721-2.487,3.104c-0.264,1.383,0.174,2.806,1.17,3.802
		l94.018,94.018L400.379,433.572z"/>
	<path d="M236.763,35.923c53.646,0,104.082,20.892,142.016,58.825c37.933,37.934,58.823,88.369,58.823,142.016
		c0,2.347,1.902,4.25,4.25,4.25c2.347,0,4.25-1.903,4.25-4.25c0-55.917-21.774-108.487-61.314-148.026
		C345.25,49.198,292.68,27.423,236.763,27.423c-2.347,0-4.25,1.903-4.25,4.25C232.513,34.02,234.415,35.923,236.763,35.923z"/>
	<path d="M236.762,437.603c-110.743,0-200.839-90.097-200.839-200.84c0-2.347-1.902-4.25-4.25-4.25c-2.348,0-4.25,1.903-4.25,4.25
		c0,115.431,93.909,209.34,209.339,209.34c2.348,0,4.25-1.903,4.25-4.25C241.012,439.506,239.11,437.603,236.762,437.603z"/>
	<path d="M236.763,97.645c-76.71,0-139.118,62.408-139.118,139.119c0,2.347,1.902,4.25,4.25,4.25c2.348,0,4.25-1.903,4.25-4.25
		c0-72.023,58.595-130.619,130.618-130.619c2.348,0,4.25-1.903,4.25-4.25C241.013,99.547,239.111,97.645,236.763,97.645z"/>
</g>
<g>
</g>
<g>
</g>
<g>
</g>
<g>
</g>
<g>
</g>
<g>
</g>
<g>
</g>
<g>
</g>
<g>
</g>
<g>
</g>
<g>
</g>
<g>
</g>
<g>
</g>
<g>
</g>
<g>
</g>
</svg>
