<?xml version="1.0" encoding="iso-8859-1"?>
<!-- Generator: Adobe Illustrator 18.0.0, SVG Export Plug-In . SVG Version: 6.00 Build 0)  -->
<!DOCTYPE svg PUBLIC "-//W3C//DTD SVG 1.1//EN" "http://www.w3.org/Graphics/SVG/1.1/DTD/svg11.dtd">
<svg version="1.1" id="Capa_1" xmlns="http://www.w3.org/2000/svg" xmlns:xlink="http://www.w3.org/1999/xlink" x="0px" y="0px"
	 viewBox="0 0 492.938 492.938" style="enable-background:new 0 0 492.938 492.938;" xml:space="preserve">
<g>
	<path d="M203.027,156.416c2.348,0,4.25-1.903,4.25-4.25c0-52.032,42.331-94.363,94.363-94.363c2.348,0,4.25-1.903,4.25-4.25
		c0-2.347-1.902-4.25-4.25-4.25c-56.719,0-102.863,46.144-102.863,102.863C198.777,154.513,200.68,156.416,203.027,156.416z"/>
	<path d="M242.648,152.655c0,32.529,26.464,58.994,58.992,58.994c32.529,0,58.994-26.464,58.994-58.994
		c0-32.529-26.465-58.993-58.994-58.993C269.112,93.662,242.648,120.126,242.648,152.655z M352.135,152.655
		c0,27.842-22.651,50.494-50.494,50.494c-27.842,0-50.492-22.651-50.492-50.494c0-27.842,22.65-50.493,50.492-50.493
		C329.483,102.162,352.135,124.813,352.135,152.655z"/>
	<path d="M476.576,119.556h-48.019c-14.531-56.522-65.923-98.414-126.917-98.414c-60.993,0-112.384,41.892-126.915,98.414H16.361
		C7.34,119.556,0,126.896,0,135.917v319.519c0,9.021,7.34,16.36,16.361,16.36h460.215c9.021,0,16.361-7.339,16.361-16.36V135.917
		C492.938,126.896,485.598,119.556,476.576,119.556z M8.5,393.416h211.916c2.348,0,4.25-1.903,4.25-4.25
		c0-2.347-1.902-4.25-4.25-4.25H8.5v-35.5h95.916c2.348,0,4.25-1.903,4.25-4.25c0-2.347-1.902-4.25-4.25-4.25H8.5v-88.5h121.916
		c2.348,0,4.25-1.903,4.25-4.25c0-2.347-1.902-4.25-4.25-4.25H8.5v-57.011h167.367c8.762,31.561,28.465,69.336,58.904,112.83
		c31.493,44.998,63.426,79.755,63.745,80.101c0.803,0.872,1.934,1.368,3.119,1.369c0.002,0,0.003,0,0.005,0
		c1.184,0,2.314-0.494,3.118-1.362c0.318-0.344,32.254-34.944,63.749-79.865c30.5-43.501,50.224-81.36,58.96-113.073h56.97v190.011
		h-82.022c-2.348,0-4.25,1.903-4.25,4.25c0,2.347,1.902,4.25,4.25,4.25h82.022v44.902H8.5V393.416z M484.438,159.654v18.751h-54.855
		c1.439-6.536,2.371-12.786,2.802-18.751H484.438z M476.576,128.056c4.335,0,7.861,3.526,7.861,7.861v15.237h-51.784
		c-0.061-7.883-0.819-15.602-2.22-23.099H476.576z M301.641,29.642c67.561,0,122.525,54.964,122.525,122.524
		c0,77.622-103.096,196.704-122.519,218.444c-19.403-21.806-122.53-141.358-122.53-218.444
		C179.117,84.606,234.081,29.642,301.641,29.642z M16.361,128.056H172.85c-1.461,7.818-2.232,15.875-2.232,24.11
		c0,8.146,1.043,16.897,3.118,26.239H8.5v-42.488C8.5,131.582,12.026,128.056,16.361,128.056z M476.576,463.296H16.361
		c-4.335,0-7.861-3.526-7.861-7.86v-16.617h475.938v16.617C484.438,459.77,480.911,463.296,476.576,463.296z"/>
	<path d="M38.408,168.738c8.466,0,15.354-6.887,15.354-15.352c0-8.465-6.888-15.353-15.354-15.353
		c-8.465,0-15.352,6.887-15.352,15.353C23.057,161.851,29.943,168.738,38.408,168.738z M38.408,146.534
		c3.779,0,6.854,3.074,6.854,6.853c0,3.778-3.074,6.852-6.854,6.852c-3.778,0-6.852-3.074-6.852-6.852
		C31.557,149.608,34.63,146.534,38.408,146.534z"/>
	<path d="M81.303,168.738c8.466,0,15.354-6.887,15.354-15.352c0-8.465-6.888-15.353-15.354-15.353
		c-8.465,0-15.352,6.887-15.352,15.353C65.951,161.851,72.838,168.738,81.303,168.738z M81.303,146.534
		c3.779,0,6.854,3.074,6.854,6.853c0,3.778-3.074,6.852-6.854,6.852c-3.778,0-6.852-3.074-6.852-6.852
		C74.451,149.608,77.524,146.534,81.303,146.534z"/>
	<path d="M124.199,168.738c8.465,0,15.352-6.887,15.352-15.352c0-8.465-6.887-15.353-15.352-15.353
		c-8.466,0-15.354,6.887-15.354,15.353C108.846,161.851,115.733,168.738,124.199,168.738z M124.199,146.534
		c3.778,0,6.852,3.074,6.852,6.853c0,3.778-3.073,6.852-6.852,6.852c-3.779,0-6.854-3.074-6.854-6.852
		C117.346,149.608,120.42,146.534,124.199,146.534z"/>
</g>
<g>
</g>
<g>
</g>
<g>
</g>
<g>
</g>
<g>
</g>
<g>
</g>
<g>
</g>
<g>
</g>
<g>
</g>
<g>
</g>
<g>
</g>
<g>
</g>
<g>
</g>
<g>
</g>
<g>
</g>
</svg>
