<?xml version="1.0" encoding="iso-8859-1"?>
<!-- Generator: Adobe Illustrator 18.0.0, SVG Export Plug-In . SVG Version: 6.00 Build 0)  -->
<!DOCTYPE svg PUBLIC "-//W3C//DTD SVG 1.1//EN" "http://www.w3.org/Graphics/SVG/1.1/DTD/svg11.dtd">
<svg version="1.1" id="Capa_1" xmlns="http://www.w3.org/2000/svg" xmlns:xlink="http://www.w3.org/1999/xlink" x="0px" y="0px"
	 viewBox="0 0 484.867 484.867" style="enable-background:new 0 0 484.867 484.867;" xml:space="preserve">
<g>
	<path d="M160.952,96.624c-1.644,1.676-1.617,4.367,0.059,6.01c0.827,0.811,1.901,1.215,2.976,1.215
		c1.102,0,2.202-0.426,3.034-1.274c40.884-41.692,108.06-42.347,149.751-1.466c1.675,1.643,4.366,1.617,6.01-0.059
		c1.643-1.676,1.617-4.367-0.059-6.01C277.685,50.877,205.114,51.587,160.952,96.624z"/>
	<path d="M122.179,62.851c1.102,0,2.202-0.426,3.034-1.274c63.489-64.738,167.814-65.76,232.555-2.275
		c1.675,1.643,4.365,1.617,6.01-0.059c1.643-1.676,1.617-4.367-0.059-6.01c-68.089-66.765-177.805-65.691-244.574,2.394
		c-1.644,1.676-1.617,4.367,0.059,6.01C120.03,62.446,121.104,62.851,122.179,62.851z"/>
	<path d="M468.706,121.959H16.159C7.249,121.959,0,129.208,0,138.118v326.737c0,8.911,7.249,16.16,16.159,16.16h452.547
		c8.911,0,16.161-7.25,16.161-16.16V138.118C484.867,129.208,477.617,121.959,468.706,121.959z M8.5,282.264h53.688
		c2.348,0,4.25-1.903,4.25-4.25s-1.902-4.25-4.25-4.25H8.5v-27.5h89.681c2.348,0,4.25-1.903,4.25-4.25s-1.902-4.25-4.25-4.25H8.5
		v-43.144h467.867v178.567h-87.968c-2.348,0-4.25,1.903-4.25,4.25c0,2.347,1.902,4.25,4.25,4.25h87.968v26.666H8.5V282.264z
		 M16.159,130.459h452.547c4.225,0,7.661,3.436,7.661,7.659v48.002H8.5v-48.002C8.5,133.895,11.936,130.459,16.159,130.459z
		 M468.706,472.516H16.159c-4.224,0-7.659-3.437-7.659-7.66v-48.002h467.867v48.002
		C476.367,469.079,472.931,472.516,468.706,472.516z"/>
	<path d="M305.877,288.956l-94.969-64.84c-3.008-2.054-5.984-3.095-8.849-3.095c-5.48,0-11.012,4.2-11.013,13.583l-0.006,133.767
		c0,3.806,0.939,7.073,2.717,9.45c1.993,2.666,4.939,4.133,8.294,4.133c2.864,0,5.841-1.041,8.849-3.095l94.977-64.841
		c4.642-3.169,7.305-7.737,7.305-12.531C313.182,296.692,310.519,292.125,305.877,288.956z M301.084,306.999l-94.977,64.841
		c-2.058,1.404-3.424,1.614-4.056,1.614c-0.672,0-1.103-0.209-1.487-0.724c-0.382-0.511-1.023-1.758-1.023-4.359l0.006-133.767
		c0-1.192,0.182-5.083,2.513-5.083c0.632,0,1.998,0.21,4.056,1.614l94.969,64.84c2.319,1.584,3.598,3.541,3.598,5.512
		C304.682,303.457,303.403,305.415,301.084,306.999z"/>
	<path d="M46.244,173.963h23.15c2.348,0,4.25-1.903,4.25-4.25v-23.149c0-2.347-1.902-4.25-4.25-4.25h-23.15
		c-2.348,0-4.25,1.903-4.25,4.25v23.149C41.994,172.06,43.896,173.963,46.244,173.963z M50.494,150.814h14.65v14.649h-14.65V150.814
		z"/>
	<path d="M120.089,173.963h23.15c2.348,0,4.25-1.903,4.25-4.25v-23.149c0-2.347-1.902-4.25-4.25-4.25h-23.15
		c-2.348,0-4.25,1.903-4.25,4.25v23.149C115.839,172.06,117.741,173.963,120.089,173.963z M124.339,150.814h14.65v14.649h-14.65
		V150.814z"/>
	<path d="M193.936,173.963h23.148c2.348,0,4.25-1.903,4.25-4.25v-23.149c0-2.347-1.902-4.25-4.25-4.25h-23.148
		c-2.348,0-4.25,1.903-4.25,4.25v23.149C189.686,172.06,191.588,173.963,193.936,173.963z M198.186,150.814h14.648v14.649h-14.648
		V150.814z"/>
	<path d="M267.782,173.963h23.149c2.348,0,4.25-1.903,4.25-4.25v-23.149c0-2.347-1.902-4.25-4.25-4.25h-23.149
		c-2.348,0-4.25,1.903-4.25,4.25v23.149C263.532,172.06,265.435,173.963,267.782,173.963z M272.032,150.814h14.649v14.649h-14.649
		V150.814z"/>
	<path d="M341.628,173.963h23.148c2.348,0,4.25-1.903,4.25-4.25v-23.149c0-2.347-1.902-4.25-4.25-4.25h-23.148
		c-2.348,0-4.25,1.903-4.25,4.25v23.149C337.378,172.06,339.28,173.963,341.628,173.963z M345.878,150.814h14.648v14.649h-14.648
		V150.814z"/>
	<path d="M415.475,173.963h23.149c2.348,0,4.25-1.903,4.25-4.25v-23.149c0-2.347-1.902-4.25-4.25-4.25h-23.149
		c-2.348,0-4.25,1.903-4.25,4.25v23.149C411.225,172.06,413.127,173.963,415.475,173.963z M419.725,150.814h14.649v14.649h-14.649
		V150.814z"/>
	<path d="M69.394,426.895h-23.15c-2.348,0-4.25,1.903-4.25,4.25v23.149c0,2.347,1.902,4.25,4.25,4.25h23.15
		c2.348,0,4.25-1.903,4.25-4.25v-23.149C73.644,428.797,71.741,426.895,69.394,426.895z M65.144,450.044h-14.65v-14.649h14.65
		V450.044z"/>
	<path d="M143.239,426.895h-23.15c-2.348,0-4.25,1.903-4.25,4.25v23.149c0,2.347,1.902,4.25,4.25,4.25h23.15
		c2.348,0,4.25-1.903,4.25-4.25v-23.149C147.489,428.797,145.587,426.895,143.239,426.895z M138.989,450.044h-14.65v-14.649h14.65
		V450.044z"/>
	<path d="M217.084,426.895h-23.148c-2.348,0-4.25,1.903-4.25,4.25v23.149c0,2.347,1.902,4.25,4.25,4.25h23.148
		c2.348,0,4.25-1.903,4.25-4.25v-23.149C221.334,428.797,219.432,426.895,217.084,426.895z M212.834,450.044h-14.648v-14.649h14.648
		V450.044z"/>
	<path d="M290.932,426.895h-23.149c-2.348,0-4.25,1.903-4.25,4.25v23.149c0,2.347,1.902,4.25,4.25,4.25h23.149
		c2.348,0,4.25-1.903,4.25-4.25v-23.149C295.182,428.797,293.279,426.895,290.932,426.895z M286.682,450.044h-14.649v-14.649h14.649
		V450.044z"/>
	<path d="M364.776,426.895h-23.148c-2.348,0-4.25,1.903-4.25,4.25v23.149c0,2.347,1.902,4.25,4.25,4.25h23.148
		c2.348,0,4.25-1.903,4.25-4.25v-23.149C369.026,428.797,367.124,426.895,364.776,426.895z M360.526,450.044h-14.648v-14.649h14.648
		V450.044z"/>
	<path d="M438.624,426.895h-23.149c-2.348,0-4.25,1.903-4.25,4.25v23.149c0,2.347,1.902,4.25,4.25,4.25h23.149
		c2.348,0,4.25-1.903,4.25-4.25v-23.149C442.874,428.797,440.972,426.895,438.624,426.895z M434.374,450.044h-14.649v-14.649h14.649
		V450.044z"/>
	<path d="M364.394,373.188h-33.461c-2.348,0-4.25,1.903-4.25,4.25c0,2.347,1.902,4.25,4.25,4.25h33.461
		c2.348,0,4.25-1.903,4.25-4.25C368.644,375.09,366.741,373.188,364.394,373.188z"/>
</g>
<g>
</g>
<g>
</g>
<g>
</g>
<g>
</g>
<g>
</g>
<g>
</g>
<g>
</g>
<g>
</g>
<g>
</g>
<g>
</g>
<g>
</g>
<g>
</g>
<g>
</g>
<g>
</g>
<g>
</g>
</svg>
