<?xml version="1.0" encoding="iso-8859-1"?>
<!-- Generator: Adobe Illustrator 18.0.0, SVG Export Plug-In . SVG Version: 6.00 Build 0)  -->
<!DOCTYPE svg PUBLIC "-//W3C//DTD SVG 1.1//EN" "http://www.w3.org/Graphics/SVG/1.1/DTD/svg11.dtd">
<svg version="1.1" id="Capa_1" xmlns="http://www.w3.org/2000/svg" xmlns:xlink="http://www.w3.org/1999/xlink" x="0px" y="0px"
	 viewBox="0 0 490.696 490.696" style="enable-background:new 0 0 490.696 490.696;" xml:space="preserve">
<g>
	<path d="M245.346,334.125c-11.581,0-21.003,9.421-21.003,21.002c0,11.581,9.422,21.003,21.003,21.003
		c11.581,0,21.003-9.422,21.003-21.003C266.349,343.546,256.927,334.125,245.346,334.125z M245.346,367.63
		c-6.894,0-12.503-5.609-12.503-12.503c0-6.894,5.609-12.502,12.503-12.502c6.894,0,12.503,5.608,12.503,12.502
		C257.849,362.021,252.241,367.63,245.346,367.63z"/>
	<path d="M425.439,88.698h-126.44c-10.762-42.878-29.075-75.5-51.567-88.152c-1.294-0.728-2.873-0.728-4.167,0
		c-22.492,12.652-40.806,45.273-51.567,88.152H65.257c-16.199,0-29.378,13.18-29.378,29.379v258.724
		c0,16.2,13.179,29.379,29.378,29.379h125.397l-14.222,40.653h-1.372c-12.557,0-22.773,10.217-22.773,22.776v16.837
		c0,2.347,1.903,4.25,4.25,4.25h177.62c2.347,0,4.25-1.903,4.25-4.25v-16.837c0-12.559-10.217-22.776-22.776-22.776h-1.37
		l-14.222-40.653h125.399c16.199,0,29.378-13.179,29.378-29.379V118.077C454.817,101.877,441.638,88.698,425.439,88.698z
		 M425.439,97.198c11.512,0,20.878,9.367,20.878,20.879v31.394h-75.387c-2.347,0-4.25,1.903-4.25,4.25c0,2.347,1.903,4.25,4.25,4.25
		h75.387v152.813H427.87c-0.957-9.43-5.146-18.326-11.864-25.079c-0.741-15.559-10.588-29.175-25.132-34.749
		c-6.712-12.938-20.195-21.2-34.849-21.201c-3.989,0-7.888,0.602-11.645,1.774c-6.599-21.575-18.451-41.3-34.911-57.682
		c-0.318-27.284-3.304-53.311-8.462-76.65H425.439z M181.28,186.179c0.396,22.5,2.584,44.293,6.523,64.917
		c-5.702,8.086-9.741,17.417-11.626,27.503H148.91c-0.115-2.181-0.169-4.185-0.169-6.132
		C148.74,240.3,160.228,210.035,181.28,186.179z M309.416,186.179c21.051,23.856,32.539,54.12,32.539,86.289
		c0,1.947-0.055,3.951-0.169,6.132H314.52c-1.885-10.086-5.925-19.417-11.626-27.503
		C306.832,230.472,309.02,208.679,309.416,186.179z M307.235,291.553c0,0.276-0.002,0.555-0.007,0.837H183.469
		c-0.005-0.282-0.007-0.562-0.007-0.837c0-34.125,27.762-61.887,61.887-61.887S307.235,257.429,307.235,291.553z M140.689,283.173
		c0.169,2.216,2.016,3.927,4.238,3.927h30.19c-0.093,1.474-0.156,2.956-0.156,4.453c0,1.642,0.074,3.411,0.226,5.41
		c0.169,2.215,2.016,3.927,4.238,3.927h131.846c2.222,0,4.069-1.712,4.238-3.927c0.152-1.999,0.226-3.768,0.226-5.41
		c0-1.497-0.063-2.979-0.156-4.453h30.19c2.222,0,4.069-1.711,4.238-3.927c0.302-3.97,0.449-7.471,0.449-10.705
		c0-11.184-1.313-22.15-3.848-32.735c3.033-0.98,6.187-1.478,9.417-1.478c11.957,0.001,22.922,7.026,27.933,17.9
		c0.493,1.069,1.406,1.885,2.523,2.255c12.588,4.172,21.055,15.886,21.07,29.15c0.001,1.188,0.5,2.32,1.374,3.124
		c5.744,5.28,9.4,12.441,10.381,20.099H69.276c0.981-7.657,4.637-14.819,10.381-20.099c0.874-0.804,1.372-1.937,1.374-3.124
		c0.015-13.264,8.482-24.978,21.069-29.15c1.117-0.37,2.03-1.186,2.523-2.255c5.011-10.874,15.976-17.899,27.933-17.9
		c3.926,0,7.741,0.739,11.361,2.185c-2.425,10.366-3.678,21.094-3.678,32.029C140.24,275.702,140.387,279.203,140.689,283.173z
		 M245.348,9.202c15.087,9.599,28.812,30.52,38.836,59.301c11.002,31.588,16.816,69.699,16.816,110.213
		c0,22.079-1.744,43.511-5.188,63.842c-12.799-13.18-30.686-21.392-50.465-21.392c-19.779,0-37.667,8.212-50.465,21.392
		c-3.444-20.331-5.188-41.763-5.188-63.842c0-40.515,5.815-78.625,16.816-110.213C216.536,39.722,230.261,18.802,245.348,9.202z
		 M65.257,97.198h124.432c-5.158,23.339-8.143,49.366-8.462,76.65c-16.626,16.548-28.546,36.507-35.104,58.337
		c-4.342-1.606-8.892-2.43-13.566-2.43c-14.654,0.001-28.137,8.263-34.849,21.201c-14.544,5.574-24.39,19.19-25.131,34.749
		c-6.717,6.753-10.906,15.649-11.864,25.079H44.379V139.971h89.563c2.347,0,4.25-1.903,4.25-4.25c0-2.347-1.903-4.25-4.25-4.25
		H44.379v-13.395C44.379,106.564,53.745,97.198,65.257,97.198z M329.908,469.609v12.587h-169.12v-12.587
		c0-7.872,6.403-14.276,14.273-14.276h140.57C323.504,455.333,329.908,461.737,329.908,469.609z M305.256,446.833H185.438
		l14.222-40.653h91.374L305.256,446.833z M425.439,397.679H65.257c-11.512,0-20.878-9.366-20.878-20.879v-25.486h63.737
		c2.347,0,4.25-1.903,4.25-4.25s-1.903-4.25-4.25-4.25H44.379v-23.531h401.938v57.517
		C446.317,388.313,436.951,397.679,425.439,397.679z"/>
	<path d="M245.348,112.72c13.274,0,24.074-10.8,24.074-24.074c0-13.274-10.8-24.074-24.074-24.074
		c-13.274,0-24.074,10.799-24.074,24.074C221.274,101.921,232.074,112.72,245.348,112.72z M245.348,73.073
		c8.587,0,15.574,6.986,15.574,15.574s-6.987,15.574-15.574,15.574c-8.587,0-15.574-6.987-15.574-15.574
		S236.761,73.073,245.348,73.073z"/>
</g>
<g>
</g>
<g>
</g>
<g>
</g>
<g>
</g>
<g>
</g>
<g>
</g>
<g>
</g>
<g>
</g>
<g>
</g>
<g>
</g>
<g>
</g>
<g>
</g>
<g>
</g>
<g>
</g>
<g>
</g>
</svg>
