<?xml version="1.0" encoding="utf-8"?>
<!-- Generator: Adobe Illustrator 23.0.4, SVG Export Plug-In . SVG Version: 6.00 Build 0)  -->
<svg version="1.1" id="Capa_1" xmlns="http://www.w3.org/2000/svg" xmlns:xlink="http://www.w3.org/1999/xlink" x="0px" y="0px"
	 viewBox="0 0 490.7 490.7" style="enable-background:new 0 0 490.7 490.7;" xml:space="preserve">
<style type="text/css">
	.st0{fill:#FFFFFF;}
</style>
<g>
	<path class="st0" d="M245.3,334.1c-11.6,0-21,9.4-21,21c0,11.6,9.4,21,21,21s21-9.4,21-21C266.3,343.5,256.9,334.1,245.3,334.1z
		 M245.3,367.6c-6.9,0-12.5-5.6-12.5-12.5c0-6.9,5.6-12.5,12.5-12.5c6.9,0,12.5,5.6,12.5,12.5C257.8,362,252.2,367.6,245.3,367.6z"
		/>
	<path class="st0" d="M425.4,88.7H299c-10.8-42.9-29.1-75.5-51.6-88.2c-1.3-0.7-2.9-0.7-4.2,0c-22.5,12.7-40.8,45.3-51.6,88.2H65.3
		c-16.2,0-29.4,13.2-29.4,29.4v258.7c0,16.2,13.2,29.4,29.4,29.4h125.4l-14.2,40.7h-1.4c-12.6,0-22.8,10.2-22.8,22.8v16.8
		c0,2.3,1.9,4.2,4.2,4.2h177.6c2.3,0,4.2-1.9,4.2-4.2v-16.8c0-12.6-10.2-22.8-22.8-22.8h-1.4L300,406.2h125.4
		c16.2,0,29.4-13.2,29.4-29.4V118.1C454.8,101.9,441.6,88.7,425.4,88.7z M425.4,97.2c11.5,0,20.9,9.4,20.9,20.9v31.4h-75.4
		c-2.3,0-4.2,1.9-4.2,4.2s1.9,4.2,4.2,4.2h75.4v152.8h-18.4c-1-9.4-5.1-18.3-11.9-25.1c-0.7-15.6-10.6-29.2-25.1-34.7
		c-6.7-12.9-20.2-21.2-34.8-21.2c-4,0-7.9,0.6-11.6,1.8c-6.6-21.6-18.5-41.3-34.9-57.7c-0.3-27.3-3.3-53.3-8.5-76.7L425.4,97.2
		L425.4,97.2z M181.3,186.2c0.4,22.5,2.6,44.3,6.5,64.9c-5.7,8.1-9.7,17.4-11.6,27.5h-27.3c-0.1-2.2-0.2-4.2-0.2-6.1
		C148.7,240.3,160.2,210,181.3,186.2z M309.4,186.2c21.1,23.9,32.5,54.1,32.5,86.3c0,1.9-0.1,4-0.2,6.1h-27.3
		c-1.9-10.1-5.9-19.4-11.6-27.5C306.8,230.5,309,208.7,309.4,186.2z M307.2,291.6c0,0.3,0,0.6,0,0.8H183.5c0-0.3,0-0.6,0-0.8
		c0-34.1,27.8-61.9,61.9-61.9S307.2,257.4,307.2,291.6z M140.7,283.2c0.2,2.2,2,3.9,4.2,3.9h30.2c-0.1,1.5-0.2,3-0.2,4.5
		c0,1.6,0.1,3.4,0.2,5.4c0.2,2.2,2,3.9,4.2,3.9h131.8c2.2,0,4.1-1.7,4.2-3.9c0.2-2,0.2-3.8,0.2-5.4c0-1.5-0.1-3-0.2-4.5h30.2
		c2.2,0,4.1-1.7,4.2-3.9c0.3-4,0.4-7.5,0.4-10.7c0-11.2-1.3-22.1-3.8-32.7c3-1,6.2-1.5,9.4-1.5c12,0,22.9,7,27.9,17.9
		c0.5,1.1,1.4,1.9,2.5,2.3c12.6,4.2,21.1,15.9,21.1,29.1c0,1.2,0.5,2.3,1.4,3.1c5.7,5.3,9.4,12.4,10.4,20.1h-350
		c1-7.7,4.6-14.8,10.4-20.1c0.9-0.8,1.4-1.9,1.4-3.1c0-13.3,8.5-25,21.1-29.1c1.1-0.4,2-1.2,2.5-2.3c5-10.9,16-17.9,27.9-17.9
		c3.9,0,7.7,0.7,11.4,2.2c-2.4,10.4-3.7,21.1-3.7,32C140.2,275.7,140.4,279.2,140.7,283.2z M245.3,9.2c15.1,9.6,28.8,30.5,38.8,59.3
		c11,31.6,16.8,69.7,16.8,110.2c0,22.1-1.7,43.5-5.2,63.8c-12.8-13.2-30.7-21.4-50.5-21.4s-37.7,8.2-50.5,21.4
		c-3.4-20.3-5.2-41.8-5.2-63.8c0-40.5,5.8-78.6,16.8-110.2C216.5,39.7,230.3,18.8,245.3,9.2z M65.3,97.2h124.4
		c-5.2,23.3-8.1,49.4-8.5,76.6c-16.6,16.5-28.5,36.5-35.1,58.3c-4.3-1.6-8.9-2.4-13.6-2.4c-14.7,0-28.1,8.3-34.8,21.2
		c-14.5,5.6-24.4,19.2-25.1,34.7c-6.7,6.8-10.9,15.6-11.9,25.1H44.4V140h89.6c2.3,0,4.2-1.9,4.2-4.2s-1.9-4.2-4.2-4.2H44.4v-13.4
		C44.4,106.6,53.7,97.2,65.3,97.2z M329.9,469.6v12.6H160.8v-12.6c0-7.9,6.4-14.3,14.3-14.3h140.6
		C323.5,455.3,329.9,461.7,329.9,469.6z M305.3,446.8H185.4l14.2-40.7H291L305.3,446.8z M425.4,397.7H65.3
		c-11.5,0-20.9-9.4-20.9-20.9v-25.5h63.7c2.3,0,4.2-1.9,4.2-4.2s-1.9-4.2-4.2-4.2H44.4v-23.5h401.9v57.5
		C446.3,388.3,437,397.7,425.4,397.7z"/>
	<path class="st0" d="M245.3,112.7c13.3,0,24.1-10.8,24.1-24.1s-10.8-24.1-24.1-24.1c-13.3,0-24.1,10.8-24.1,24.1
		C221.3,101.9,232.1,112.7,245.3,112.7z M245.3,73.1c8.6,0,15.6,7,15.6,15.6s-7,15.6-15.6,15.6s-15.6-7-15.6-15.6
		S236.8,73.1,245.3,73.1z"/>
</g>
</svg>
