<?xml version="1.0" encoding="iso-8859-1"?>
<!-- Generator: Adobe Illustrator 18.0.0, SVG Export Plug-In . SVG Version: 6.00 Build 0)  -->
<!DOCTYPE svg PUBLIC "-//W3C//DTD SVG 1.1//EN" "http://www.w3.org/Graphics/SVG/1.1/DTD/svg11.dtd">
<svg version="1.1" id="Capa_1" xmlns="http://www.w3.org/2000/svg" xmlns:xlink="http://www.w3.org/1999/xlink" x="0px" y="0px"
	 viewBox="0 0 487.16 487.16" style="enable-background:new 0 0 487.16 487.16;" xml:space="preserve">
<g>
	<path d="M240.934,291.482c-13.116,0-23.787,10.671-23.787,23.787c0,13.116,10.671,23.787,23.787,23.787
		c13.116,0,23.787-10.671,23.787-23.787C264.721,302.152,254.05,291.482,240.934,291.482z M240.934,330.556
		c-8.43,0-15.287-6.857-15.287-15.287c0-8.43,6.857-15.287,15.287-15.287c8.43,0,15.287,6.857,15.287,15.287
		C256.221,323.698,249.363,330.556,240.934,330.556z"/>
	<path d="M453.605,5.261H33.555C15.053,5.261,0,20.315,0,38.817v301.727c0,18.503,15.053,33.556,33.555,33.556h147.497
		l-17.482,58.059h-1.96c-14.255,0-25.853,11.599-25.853,25.855v19.635c0,2.348,1.902,4.25,4.25,4.25h207.145
		c2.348,0,4.25-1.902,4.25-4.25v-19.635c0-14.257-11.6-25.855-25.857-25.855h-1.956l-17.483-58.059h147.498
		c18.502,0,33.555-15.053,33.555-33.556V38.817C487.16,20.315,472.107,5.261,453.605,5.261z M33.555,13.761h420.051
		c13.815,0,25.055,11.24,25.055,25.057v1.169h-90.997c-2.348,0-4.25,1.902-4.25,4.25c0,2.348,1.902,4.25,4.25,4.25h90.997v222.043
		H8.5v-8.803h170.689c2.348,0,4.25-1.902,4.25-4.25c0-2.348-1.902-4.25-4.25-4.25H8.5V38.817
		C8.5,25.001,19.739,13.761,33.555,13.761z M342.902,458.015v15.385H144.258v-15.385c0-9.569,7.784-17.355,17.353-17.355h163.936
		C335.116,440.659,342.902,448.445,342.902,458.015z M314.713,432.159H172.447l17.481-58.059H297.23L314.713,432.159z
		 M453.605,365.601H33.555c-13.815,0-25.055-11.24-25.055-25.056v-29.929h77.893c2.348,0,4.25-1.902,4.25-4.25
		c0-2.348-1.902-4.25-4.25-4.25H8.5v-23.087h470.16v61.516C478.66,354.36,467.421,365.601,453.605,365.601z"/>
	<path d="M303.668,48.486h61.496c2.348,0,4.25-1.902,4.25-4.25c0-2.348-1.902-4.25-4.25-4.25h-61.496c-2.348,0-4.25,1.902-4.25,4.25
		C299.418,46.584,301.32,48.486,303.668,48.486z"/>
	<path d="M72.581,118.591c18.196,0,33-14.804,33-33c0-6.51-1.902-12.579-5.169-17.698c6.516-2.948,20.938-8.394,38.964-8.59
		c0.35-0.004,0.695-0.006,1.043-0.006c31.787,0,59.356,15.937,81.994,47.374l-29.161-6.479c-2.286-0.51-4.561,0.936-5.07,3.227
		c-0.51,2.291,0.936,4.562,3.227,5.07l40.5,9c0.306,0.068,0.614,0.102,0.922,0.102c1.006,0,1.991-0.357,2.77-1.026
		c1.016-0.873,1.561-2.173,1.471-3.51l-3-44.5c-0.157-2.341-2.16-4.113-4.526-3.954c-2.342,0.158-4.112,2.185-3.954,4.526
		l2.043,30.3c-30.207-40.482-64.504-48.841-88.349-48.622c-21.802,0.237-38.592,7.428-44.542,10.356
		c-5.862-5.322-13.64-8.569-22.161-8.569c-18.196,0-33,14.804-33,33C39.581,103.787,54.385,118.591,72.581,118.591z M72.581,61.091
		c13.51,0,24.5,10.99,24.5,24.5c0,13.51-10.99,24.5-24.5,24.5c-13.51,0-24.5-10.99-24.5-24.5
		C48.081,72.081,59.071,61.091,72.581,61.091z"/>
	<path d="M210.061,173.031c-1.016,0.873-1.561,2.173-1.471,3.51l3,44.5c0.151,2.244,2.018,3.964,4.236,3.964
		c0.096,0,0.192-0.003,0.29-0.01c2.342-0.158,4.112-2.185,3.954-4.526l-2.059-30.538c29.454,37.853,62.269,46.16,85.372,46.16
		c0.155,0,0.313,0,0.467-0.001c21.825-0.105,38.556-7.275,44.333-10.115c4.508,12.863,16.764,22.115,31.147,22.115
		c18.196,0,33-14.804,33-33s-14.804-33-33-33c-18.196,0-33,14.804-33,33c0,0.758,0.035,1.506,0.086,2.251
		c-0.086,0.041-0.175,0.066-0.259,0.113c-0.179,0.102-18.208,10.117-42.717,10.137c-0.025,0-0.05,0-0.075,0
		c-30.775,0-57.66-15.017-80-44.642l29.043,6.454c2.293,0.514,4.563-0.935,5.07-3.227c0.51-2.291-0.935-4.562-3.226-5.07l-40.5-9
		C212.448,171.816,211.077,172.158,210.061,173.031z M379.33,190.59c13.51,0,24.5,10.99,24.5,24.5c0,13.51-10.99,24.5-24.5,24.5
		s-24.5-10.99-24.5-24.5C354.83,201.58,365.82,190.59,379.33,190.59z"/>
	<path d="M313.571,146.77c0.757,0.553,1.635,0.819,2.505,0.819c1.31,0,2.603-0.604,3.435-1.741l14.491-19.819l19.819,14.491
		c0.757,0.553,1.635,0.819,2.505,0.819c1.31,0,2.603-0.604,3.435-1.741c1.386-1.896,0.973-4.554-0.922-5.939l-19.819-14.491
		l14.491-19.819c1.386-1.896,0.973-4.554-0.922-5.939c-1.897-1.386-4.555-0.972-5.939,0.922l-14.491,19.819l-19.819-14.491
		c-1.897-1.386-4.556-0.972-5.939,0.922c-1.386,1.896-0.973,4.554,0.922,5.939l19.819,14.491l-14.491,19.819
		C311.264,142.727,311.677,145.385,313.571,146.77z"/>
</g>
<g>
</g>
<g>
</g>
<g>
</g>
<g>
</g>
<g>
</g>
<g>
</g>
<g>
</g>
<g>
</g>
<g>
</g>
<g>
</g>
<g>
</g>
<g>
</g>
<g>
</g>
<g>
</g>
<g>
</g>
</svg>
