<?xml version="1.0" encoding="iso-8859-1"?>
<!-- Generator: Adobe Illustrator 18.0.0, SVG Export Plug-In . SVG Version: 6.00 Build 0)  -->
<!DOCTYPE svg PUBLIC "-//W3C//DTD SVG 1.1//EN" "http://www.w3.org/Graphics/SVG/1.1/DTD/svg11.dtd">
<svg version="1.1" id="Capa_1" xmlns="http://www.w3.org/2000/svg" xmlns:xlink="http://www.w3.org/1999/xlink" x="0px" y="0px"
	 viewBox="0 0 488.422 488.422" style="enable-background:new 0 0 488.422 488.422;" xml:space="preserve">
<g>
	<path d="M409.764,0H78.658c-7.857,0-14.25,6.392-14.25,14.25v459.922c0,7.857,6.393,14.25,14.25,14.25h331.106
		c7.858,0,14.25-6.393,14.25-14.25V14.25C424.014,6.392,417.621,0,409.764,0z M78.658,8.5h331.106c3.171,0,5.75,2.58,5.75,5.75
		v16.08H72.908V14.25C72.908,11.08,75.488,8.5,78.658,8.5z M409.764,479.922H78.658c-3.17,0-5.75-2.58-5.75-5.75v-13.674h187.608
		c2.348,0,4.25-1.903,4.25-4.25c0-2.347-1.902-4.25-4.25-4.25H72.908V38.831h342.606v30.167h-62.332c-2.348,0-4.25,1.903-4.25,4.25
		c0,2.347,1.902,4.25,4.25,4.25h62.332v396.675C415.514,477.342,412.935,479.922,409.764,479.922z"/>
	<path d="M159.182,196.831c35.979,0,65.25-29.271,65.25-65.25s-29.258-65.25-65.221-65.25c-35.995,0-65.279,29.271-65.279,65.25
		S123.203,196.831,159.182,196.831z M159.182,188.331c-14.523,0-27.783-5.49-37.831-14.495l38.137-36.454l41.52,32.507
		C190.626,181.215,175.721,188.331,159.182,188.331z M215.932,131.581c0,11.704-3.563,22.591-9.659,31.636l-42.812-33.519V75.006
		C192.758,77.19,215.932,101.721,215.932,131.581z M154.962,75.006v51.703l-50.83-8.899
		C109.972,94.48,130.297,76.841,154.962,75.006z M102.696,126.188l47.502,8.316l-34.743,33.208
		c-8.13-9.822-13.023-22.417-13.023-36.133C102.432,129.761,102.527,127.964,102.696,126.188z"/>
	<path d="M369.182,115.664H265.85c-2.348,0-4.25,1.903-4.25,4.25c0,2.347,1.902,4.25,4.25,4.25h103.332
		c2.348,0,4.25-1.903,4.25-4.25C373.432,117.567,371.53,115.664,369.182,115.664z"/>
	<path d="M369.182,171.531H265.85c-2.348,0-4.25,1.903-4.25,4.25c0,2.347,1.902,4.25,4.25,4.25h103.332
		c2.348,0,4.25-1.903,4.25-4.25C373.432,173.434,371.53,171.531,369.182,171.531z"/>
	<path d="M369.182,227.397H112.776c-2.347,0-4.25,1.903-4.25,4.25c0,2.347,1.903,4.25,4.25,4.25h256.406
		c2.348,0,4.25-1.903,4.25-4.25C373.432,229.3,371.53,227.397,369.182,227.397z"/>
	<path d="M369.182,283.264H112.776c-2.347,0-4.25,1.903-4.25,4.25c0,2.347,1.903,4.25,4.25,4.25h256.406
		c2.348,0,4.25-1.903,4.25-4.25C373.432,285.167,371.53,283.264,369.182,283.264z"/>
	<path d="M369.182,339.131H112.776c-2.347,0-4.25,1.903-4.25,4.25c0,2.347,1.903,4.25,4.25,4.25h256.406
		c2.348,0,4.25-1.903,4.25-4.25C373.432,341.034,371.53,339.131,369.182,339.131z"/>
	<path d="M369.182,394.997H112.776c-2.347,0-4.25,1.903-4.25,4.25c0,2.347,1.903,4.25,4.25,4.25h256.406
		c2.348,0,4.25-1.903,4.25-4.25C373.432,396.9,371.53,394.997,369.182,394.997z"/>
	<path d="M337.182,451.997h-54.666c-2.348,0-4.25,1.903-4.25,4.25c0,2.347,1.902,4.25,4.25,4.25h54.666
		c2.348,0,4.25-1.903,4.25-4.25C341.432,453.9,339.53,451.997,337.182,451.997z"/>
</g>
<g>
</g>
<g>
</g>
<g>
</g>
<g>
</g>
<g>
</g>
<g>
</g>
<g>
</g>
<g>
</g>
<g>
</g>
<g>
</g>
<g>
</g>
<g>
</g>
<g>
</g>
<g>
</g>
<g>
</g>
</svg>
