<?xml version="1.0" encoding="iso-8859-1"?>
<!-- Generator: Adobe Illustrator 18.0.0, SVG Export Plug-In . SVG Version: 6.00 Build 0)  -->
<!DOCTYPE svg PUBLIC "-//W3C//DTD SVG 1.1//EN" "http://www.w3.org/Graphics/SVG/1.1/DTD/svg11.dtd">
<svg version="1.1" id="Capa_1" xmlns="http://www.w3.org/2000/svg" xmlns:xlink="http://www.w3.org/1999/xlink" x="0px" y="0px"
	 viewBox="0 0 487.16 487.16" style="enable-background:new 0 0 487.16 487.16;" xml:space="preserve">
<g>
	<path d="M243.578,291.482c-13.116,0-23.787,10.67-23.787,23.786c0,13.117,10.671,23.788,23.787,23.788
		c13.116,0,23.787-10.671,23.787-23.788C267.365,302.152,256.694,291.482,243.578,291.482z M243.578,330.556
		c-8.43,0-15.287-6.858-15.287-15.288c0-8.429,6.857-15.286,15.287-15.286c8.43,0,15.287,6.857,15.287,15.286
		C258.865,323.697,252.008,330.556,243.578,330.556z"/>
	<path d="M453.605,5.261H33.555C15.053,5.261,0,20.314,0,38.816v301.728c0,18.503,15.053,33.557,33.555,33.557h147.496
		l-17.481,58.059h-1.959c-14.255,0-25.853,11.599-25.853,25.855v19.635c0,2.347,1.902,4.25,4.25,4.25h207.145
		c2.348,0,4.25-1.903,4.25-4.25v-19.635c0-14.257-11.6-25.855-25.857-25.855h-1.957l-17.482-58.059h147.499
		c18.502,0,33.555-15.053,33.555-33.557V38.816C487.16,20.314,472.107,5.261,453.605,5.261z M403.288,86.656
		c0,12.146-9.882,22.027-22.028,22.027c-12.146,0-22.027-9.881-22.027-22.027s9.882-22.027,22.027-22.027
		C393.406,64.629,403.288,74.51,403.288,86.656z M367.484,113.885l-79.326,74.129c-2.762-6.676-7.826-12.161-14.197-15.471
		l79.168-74.033C355.946,105.172,361.068,110.626,367.484,113.885z M281.966,199.645c0,12.146-9.882,22.027-22.028,22.027
		c-12.145,0-22.027-9.881-22.027-22.027c0-12.146,9.882-22.027,22.027-22.027C272.084,177.618,281.966,187.499,281.966,199.645z
		 M231.848,187.698l-57.068-57.892c6.341-2.839,11.539-7.776,14.712-13.927l55.909,56.928
		C239.368,176.087,234.561,181.343,231.848,187.698z M162.349,123.963c-12.146,0-22.028-9.881-22.028-22.027
		s9.882-22.027,22.028-22.027c12.146,0,22.027,9.881,22.027,22.027S174.494,123.963,162.349,123.963z M150.419,130.034
		l-47.948,59.533c-3.479-5.282-8.551-9.421-14.528-11.734l48.342-60.021C139.592,123.221,144.533,127.525,150.419,130.034z
		 M76.963,184.283c12.146,0,22.027,9.881,22.027,22.027c0,12.146-9.882,22.027-22.027,22.027c-12.146,0-22.028-9.881-22.028-22.027
		C54.935,194.165,64.816,184.283,76.963,184.283z M66.008,234.797l-29.018,35.732H13.27l38.214-47.43
		C54.967,228.367,60.037,232.493,66.008,234.797z M75.336,236.794c0.539,0.028,1.081,0.044,1.627,0.044
		c16.833,0,30.527-13.694,30.527-30.527c0-2.794-0.385-5.498-1.091-8.071l53.089-65.916c0.942,0.088,1.896,0.139,2.86,0.139
		c1.002,0,1.992-0.052,2.971-0.146l64.181,65.107c-0.054,0.734-0.09,1.474-0.09,2.222c0,16.833,13.694,30.527,30.527,30.527
		s30.528-13.694,30.528-30.527c0-0.7-0.032-1.392-0.079-2.081l86.373-80.714c1.47,0.218,2.971,0.334,4.5,0.334
		c16.833,0,30.528-13.694,30.528-30.527c0-0.822-0.042-1.635-0.106-2.441l62.998-58.924c2.515,3.905,3.98,8.545,3.98,13.525v155.386
		h-24.383c-2.348,0-4.25,1.903-4.25,4.25c0,2.347,1.902,4.25,4.25,4.25h24.383V233.2h-90.879c-2.348,0-4.25,1.903-4.25,4.25
		s1.902,4.25,4.25,4.25h90.879v28.829H47.938L75.336,236.794z M468.94,19.022l-59.573,55.72c-2.835-6.661-7.975-12.11-14.408-15.355
		l48.711-45.626h9.936C459.379,13.761,464.697,15.729,468.94,19.022z M33.555,13.761h397.68L385.659,56.45
		c-1.438-0.208-2.905-0.321-4.399-0.321c-16.833,0-30.527,13.694-30.527,30.527c0,0.796,0.04,1.583,0.101,2.364l-86.066,80.484
		c-1.573-0.251-3.186-0.386-4.829-0.386c-1.953,0-3.86,0.192-5.713,0.544l-61.74-62.866c0.255-1.583,0.392-3.206,0.392-4.86
		c0-16.833-13.694-30.527-30.527-30.527c-16.833,0-30.528,13.694-30.528,30.527c0,2.368,0.28,4.67,0.793,6.884l-53.972,67.011
		c-0.557-0.03-1.115-0.048-1.679-0.048c-16.833,0-30.528,13.694-30.528,30.527c0,2.816,0.392,5.541,1.108,8.131L8.5,262.901V103.707
		h54.297c2.348,0,4.25-1.903,4.25-4.25c0-2.347-1.902-4.25-4.25-4.25H8.5V38.816C8.5,25,19.739,13.761,33.555,13.761z
		 M342.902,458.015v15.385H144.258v-15.385c0-9.57,7.784-17.355,17.353-17.355h163.936
		C335.116,440.659,342.902,448.445,342.902,458.015z M314.712,432.159H172.446l17.481-58.059h107.302L314.712,432.159z
		 M453.605,365.601H33.555c-13.815,0-25.055-11.24-25.055-25.057v-30.428h75.037c2.348,0,4.25-1.903,4.25-4.25
		c0-2.347-1.902-4.25-4.25-4.25H8.5v-22.587h470.16v61.515C478.66,354.36,467.421,365.601,453.605,365.601z"/>
</g>
<g>
</g>
<g>
</g>
<g>
</g>
<g>
</g>
<g>
</g>
<g>
</g>
<g>
</g>
<g>
</g>
<g>
</g>
<g>
</g>
<g>
</g>
<g>
</g>
<g>
</g>
<g>
</g>
<g>
</g>
</svg>
