<?xml version="1.0" encoding="iso-8859-1"?>
<!-- Generator: Adobe Illustrator 18.0.0, SVG Export Plug-In . SVG Version: 6.00 Build 0)  -->
<!DOCTYPE svg PUBLIC "-//W3C//DTD SVG 1.1//EN" "http://www.w3.org/Graphics/SVG/1.1/DTD/svg11.dtd">
<svg version="1.1" id="Capa_1" xmlns="http://www.w3.org/2000/svg" xmlns:xlink="http://www.w3.org/1999/xlink" x="0px" y="0px"
	 viewBox="0 0 491.589 491.589" style="enable-background:new 0 0 491.589 491.589;" xml:space="preserve">
<g>
	<path d="M74.893,94.608c-8.616,0-16.718,3.355-22.811,9.448c-12.578,12.578-12.578,33.045,0,45.624
		c6.093,6.093,14.194,9.449,22.812,9.449s16.718-3.355,22.811-9.449c12.579-12.579,12.579-33.045,0-45.624
		C91.612,97.964,83.51,94.608,74.893,94.608z M91.695,143.67c-4.488,4.488-10.454,6.959-16.801,6.959s-12.313-2.472-16.802-6.959
		c-9.264-9.265-9.264-24.339,0-33.603c4.488-4.488,10.455-6.959,16.801-6.959c6.347,0,12.313,2.471,16.802,6.959
		C100.958,119.331,100.958,134.406,91.695,143.67z"/>
	<path d="M483.326,268.437L237.702,22.818c-10.015-10.016-29.68-18.55-43.837-19.024L81.361,0.026
		C73.78-0.23,66.735,2.515,61.5,7.75c-5.234,5.234-7.977,12.287-7.723,19.858l0.906,27.085l-27.083-0.907
		c-7.763-0.252-14.933,2.622-20.169,8.038c-5.03,5.201-7.664,12.143-7.416,19.544l3.769,112.503
		c0.474,14.158,9.008,33.824,19.024,43.838l245.624,245.621c5.318,5.319,12.415,8.248,19.982,8.248
		c7.567,0,14.664-2.929,19.982-8.248l121.166-121.166l53.762-53.761C494.343,297.386,494.343,279.457,483.326,268.437z
		 M302.388,477.32c-3.714,3.714-8.676,5.759-13.973,5.759s-10.259-2.045-13.973-5.759L97.706,300.586l19.806-19.805
		c1.66-1.66,1.66-4.351,0-6.011c-1.658-1.659-4.352-1.659-6.01,0l-19.806,19.806l-23.229-23.228l51.873-51.873
		c1.66-1.66,1.66-4.351,0-6.011c-1.658-1.659-4.352-1.659-6.01,0l-51.874,51.874l-33.639-33.639
		c-8.56-8.559-16.134-26.011-16.538-38.111L8.512,81.084c-0.171-5.079,1.616-9.82,5.03-13.351c3.406-3.522,8.062-5.462,13.108-5.462
		c0.221,0,0.442,0.004,0.665,0.011l112.502,3.767c12.1,0.406,29.553,7.98,38.113,16.54L322.864,227.52l-21.643,21.643
		L193.445,141.387c-1.658-1.659-4.352-1.659-6.01,0c-1.66,1.66-1.66,4.351,0,6.011L295.21,255.173l-18.654,18.654
		c-1.66,1.66-1.66,4.351,0,6.011c0.829,0.829,1.917,1.245,3.005,1.245c1.088,0,2.176-0.415,3.005-1.245l46.308-46.308l63.784,63.784
		l-92.522,92.523c-1.66,1.66-1.66,4.351,0,6.011c0.829,0.83,1.917,1.245,3.005,1.245c1.088,0,2.176-0.415,3.005-1.245l92.523-92.523
		l24.885,24.884c7.705,7.705,7.705,20.242,0.001,27.946L302.388,477.32z M477.316,302.393l-2.185,2.185L264.692,94.14
		c-1.658-1.659-4.352-1.659-6.01,0c-1.66,1.66-1.66,4.351,0,6.011l210.438,210.438l-31.3,31.299
		c-0.073-7.138-2.822-14.254-8.257-19.69L183.941,76.578c-10.016-10.016-29.682-18.55-43.838-19.024L63.2,54.979l-0.926-27.655
		c-0.175-5.194,1.686-10.011,5.237-13.563c3.552-3.553,8.393-5.403,13.565-5.239l112.505,3.767
		c12.099,0.405,29.552,7.978,38.11,16.539l13.832,13.832l-18.012,18.011c-1.66,1.66-1.66,4.351,0,6.011
		c0.829,0.83,1.917,1.245,3.005,1.245c1.088,0,2.176-0.415,3.005-1.245l18.012-18.012l225.782,225.778
		C485.019,282.153,485.019,294.689,477.316,302.393z"/>
</g>
<g>
</g>
<g>
</g>
<g>
</g>
<g>
</g>
<g>
</g>
<g>
</g>
<g>
</g>
<g>
</g>
<g>
</g>
<g>
</g>
<g>
</g>
<g>
</g>
<g>
</g>
<g>
</g>
<g>
</g>
</svg>
