<?xml version="1.0" encoding="utf-8"?>
<!-- Generator: Adobe Illustrator 23.0.4, SVG Export Plug-In . SVG Version: 6.00 Build 0)  -->
<svg version="1.1" id="Capa_1" xmlns="http://www.w3.org/2000/svg" xmlns:xlink="http://www.w3.org/1999/xlink" x="0px" y="0px"
	 viewBox="0 0 496.9 496.9" style="enable-background:new 0 0 496.9 496.9;" xml:space="preserve">
<style type="text/css">
	.st0{fill:#FFFFFF;}
</style>
<g>
	<path class="st0" d="M383.8,190.1c0-18.7-5.9-34.2-17.2-44.6c-10.3-9.6-24.5-14.7-41-14.7c-18.6,0-34.2,6.5-44.5,18.3
		c-8.8-4.2-19-6.4-30.3-6.4c-11.3,0-21.5,2.2-30.3,6.4c-10.3-11.8-26-18.3-44.5-18.3c-16.6,0-30.7,5.1-41,14.7
		c-11.2,10.5-17.2,25.9-17.2,44.6c0,30.4,14.5,61.4,34.1,75.8c-28,5.9-53.1,22-70.3,45.4c-0.9,1.3-1.1,3-0.4,4.4
		c0.7,1.4,2.2,2.3,3.8,2.3h81.7c-6.5,5.8-12.4,12.3-17.6,19.4c-0.9,1.3-1.1,3-0.4,4.4c0.7,1.4,2.2,2.3,3.8,2.3H349
		c1.6,0,3.1-0.9,3.8-2.3c0.7-1.4,0.6-3.1-0.4-4.4c-5.2-7.1-11.1-13.6-17.6-19.4h81.7c1.6,0,3.1-0.9,3.8-2.3c0.7-1.4,0.6-3.1-0.4-4.4
		c-17.1-23.4-42.3-39.5-70.3-45.4C369.3,251.4,383.8,220.5,383.8,190.1z M93.8,309.6c18.1-21,43.7-34.4,71.4-37.1
		c2-0.2,3.6-1.7,3.8-3.7c0.2-2-0.9-3.8-2.8-4.5c-19.7-7.2-36.7-36-39.5-65.5H155c2.3,0,4.2-1.9,4.2-4.2s-1.9-4.2-4.2-4.2h-28.7
		c0-0.1,0-0.1,0-0.2c0-31.8,18.6-50.8,49.7-50.8c15.4,0,28.3,5,37,14.1c-2.2,1.5-4.3,3.2-6.3,5c-12,11.2-18.4,27.8-18.4,48
		c0,17.1,4.2,34.3,11.3,49c-4.4,4.1-9.1,7.1-13.8,8.9c-1.9,0.7-3,2.6-2.8,4.5c0.2,2,1.8,3.5,3.8,3.7c9.8,1,19.5,3.3,28.7,6.9
		c3.2,3.5,6.6,6.5,10.1,9.1c-17.5,3.6-33.9,10.8-48.3,21.2H93.8z M203.6,263.1c0.8,1.5,1.7,2.9,2.6,4.3c-2-0.5-4-1-6.1-1.5
		C201.3,265,202.4,264.1,203.6,263.1z M340.2,335.7H161.3c19.6-23.1,47.6-37.8,77.8-40.8c2-0.2,3.6-1.7,3.8-3.7
		c0.2-2-0.9-3.8-2.8-4.5c-23.5-8.6-43.4-45.4-43.4-80.4c0-4.6,0.4-9,1.1-13.1h71.3c2.3,0,4.2-1.9,4.2-4.2s-1.9-4.2-4.2-4.2h-69.2
		c6.9-21.4,24.8-33.6,50.9-33.6c33.8,0,54,20.6,54,55.2c0,35-19.9,71.8-43.4,80.4c-1.9,0.7-3,2.6-2.8,4.5c0.2,2,1.8,3.5,3.8,3.7
		C292.7,297.9,320.6,312.6,340.2,335.7z M301.4,265.9c-2,0.4-4.1,0.9-6.1,1.5c0.9-1.4,1.8-2.8,2.6-4.3
		C299.1,264.1,300.2,265,301.4,265.9z M407.7,309.6h-83.4c-14.4-10.3-30.8-17.6-48.3-21.2c3.5-2.5,6.9-5.6,10.1-9.1
		c9.2-3.6,18.8-5.9,28.7-6.9c2-0.2,3.5-1.7,3.8-3.7c0.2-2-0.9-3.8-2.8-4.5c-4.8-1.7-9.4-4.7-13.8-8.9c7-14.8,11.3-32,11.3-49
		c0-20.1-6.4-36.7-18.4-48c-2-1.8-4.1-3.5-6.3-5c8.7-9.1,21.6-14.1,37-14.1c22.3,0,38.1,9.7,45.3,27H344c-2.3,0-4.2,1.9-4.2,4.2
		s1.9,4.2,4.2,4.2h29.6c1.1,4.7,1.7,9.8,1.7,15.3c0,32.3-18.3,66.3-40,74.2c-1.9,0.7-3,2.6-2.8,4.5c0.2,2,1.8,3.5,3.8,3.7
		C364,275.2,389.6,288.6,407.7,309.6z"/>
	<path class="st0" d="M484,234.4h-20.3c-3.4-52.2-25.6-101.1-62.7-138.1C363.8,59.2,314.8,37.2,262.6,34v-21
		c0-7.1-5.8-12.9-12.9-12.9h-2.3c-7.1,0-12.9,5.8-12.9,12.9v21.1C182.5,37.6,133.9,59.8,97,96.8c-36.9,37-58.9,85.7-62.2,137.6H12.9
		c-7.1,0-12.9,5.8-12.9,12.9v2.3c0,7.1,5.8,12.9,12.9,12.9h21.9c3.4,51.9,25.4,100.6,62.2,137.6c36.9,37,85.5,59.1,137.4,62.7V484
		c0,7.1,5.8,12.9,12.9,12.9h2.3c7.1,0,12.9-5.8,12.9-12.9v-21c52.2-3.2,101.2-25.2,138.4-62.3c37.2-37.1,59.4-86,62.7-138.1H484
		c7.1,0,12.9-5.8,12.9-12.9v-2.3C496.9,240.2,491.1,234.4,484,234.4z M455.2,234.4h-10.3c-3.4-47.2-23.6-91.4-57.2-124.9
		C354,76,309.7,55.9,262.5,52.8V42.5C364.8,49.1,448.2,132.1,455.2,234.4z M404.4,262.5h32c-6.9,93.3-80.5,166.6-173.8,173.1v-31.2
		c0-7.1-5.8-12.9-12.9-12.9h-2.3c-7.1,0-12.9,5.8-12.9,12.9v31.1c-92.5-7.2-165.5-80.5-172.3-173h30.4c7.1,0,12.9-5.8,12.9-12.9
		v-2.3c0-7.1-5.8-12.9-12.9-12.9H62.1c6.8-92.5,79.8-165.8,172.3-173v31.1c0,7.1,5.8,12.9,12.9,12.9h2.3c7.1,0,12.9-5.8,12.9-12.9
		V61.3c93.3,6.5,167,79.8,173.8,173.1h-32c-7.1,0-12.9,5.8-12.9,12.9v2.3C391.5,256.7,397.3,262.5,404.4,262.5z M242.9,12.9
		c0-2.4,2-4.4,4.4-4.4h2.3c2.4,0,4.4,2,4.4,4.4v79.6c0,2.4-2,4.4-4.4,4.4h-2.3c-2.4,0-4.4-2-4.4-4.4V12.9z M234.4,42.6v10.3
		c-46.9,3.5-90.8,23.7-124.1,57.2C77,143.5,56.9,187.5,53.6,234.4H43.3C50.2,131.2,131.3,49.9,234.4,42.6z M8.5,249.6v-2.3
		c0-2.4,2-4.4,4.4-4.4h79.6c2.4,0,4.4,2,4.4,4.4v2.3c0,2.4-2,4.4-4.4,4.4H12.9C10.5,254.1,8.5,252.1,8.5,249.6z M43.3,262.5h10.3
		c3.3,46.9,23.4,90.9,56.7,124.4c33.3,33.4,77.3,53.6,124.1,57.2v10.3C131.3,447.1,50.2,365.7,43.3,262.5z M254.1,484
		c0,2.4-2,4.4-4.4,4.4h-2.3c-2.4,0-4.4-2-4.4-4.4v-79.6c0-2.4,2-4.4,4.4-4.4h2.3c2.4,0,4.4,2,4.4,4.4V484z M262.6,454.4v-10.3
		c47.2-3.2,91.5-23.2,125.1-56.7c33.6-33.5,53.9-77.7,57.2-124.9h10.3C448.2,364.8,364.8,447.9,262.6,454.4z M488.4,249.6
		c0,2.4-2,4.4-4.4,4.4h-79.6c-2.4,0-4.4-2-4.4-4.4v-2.3c0-2.4,2-4.4,4.4-4.4H484c2.4,0,4.4,2,4.4,4.4V249.6z"/>
</g>
</svg>
