<?xml version="1.0" encoding="iso-8859-1"?>
<!-- Generator: Adobe Illustrator 18.0.0, SVG Export Plug-In . SVG Version: 6.00 Build 0)  -->
<!DOCTYPE svg PUBLIC "-//W3C//DTD SVG 1.1//EN" "http://www.w3.org/Graphics/SVG/1.1/DTD/svg11.dtd">
<svg version="1.1" id="Capa_1" xmlns="http://www.w3.org/2000/svg" xmlns:xlink="http://www.w3.org/1999/xlink" x="0px" y="0px"
	 viewBox="0 0 481.773 481.773" style="enable-background:new 0 0 481.773 481.773;" xml:space="preserve">
<g>
	<path d="M205.617,303.835c-11.408,0-20.688,9.28-20.688,20.688c0,11.408,9.281,20.689,20.688,20.689s20.688-9.281,20.688-20.689
		C226.306,313.115,217.025,303.835,205.617,303.835z M205.617,336.711c-6.721,0-12.188-5.468-12.188-12.189
		c0-6.72,5.468-12.188,12.188-12.188c6.721,0,12.188,5.467,12.188,12.188C217.806,331.243,212.338,336.711,205.617,336.711z"/>
	<path d="M466.523,52.375h-10.25v-19.75c0-8.96-7.289-16.25-16.25-16.25h-236c-8.96,0-16.25,7.289-16.25,16.25v30.388H28.906
		C12.967,63.013,0,75.981,0,91.921V345.79c0,15.939,12.967,28.907,28.906,28.907h123.195l-14.304,47.502h-1.147
		c-12.366,0-22.426,10.061-22.426,22.429v16.521c0,2.347,1.903,4.25,4.25,4.25h174.288c2.347,0,4.25-1.903,4.25-4.25v-16.521
		c0-12.367-10.061-22.429-22.429-22.429h-1.145l-14.304-47.502h123.196c15.939,0,28.906-12.968,28.906-28.907V126.875h55.286
		c8.409,0,15.25-6.841,15.25-15.25v-44C481.773,59.216,474.932,52.375,466.523,52.375z M196.273,32.625
		c0-4.273,3.477-7.75,7.75-7.75h236c4.273,0,7.75,3.476,7.75,7.75v1.109H331.81c-2.347,0-4.25,1.903-4.25,4.25
		c0,2.347,1.903,4.25,4.25,4.25h115.963v38.391c0,4.273-3.477,7.75-7.75,7.75h-236c-4.273,0-7.75-3.477-7.75-7.75V32.625z
		 M253.155,191.106c-1.474-0.706-3.224-0.505-4.499,0.518c-1.391,1.116-3.064,1.706-4.84,1.706h-1.499
		c-2.074,0-4.024-0.811-5.49-2.282c-1.213-1.219-3.042-1.586-4.634-0.929c-1.59,0.657-2.627,2.207-2.627,3.928v3.533
		c0,4.273-3.477,7.75-7.75,7.75h-1.499c-4.273,0-7.75-3.477-7.75-7.75V96.875h71.999v79.602c0,4.273-3.477,7.75-7.75,7.75
		c-2.347,0-4.25,1.903-4.25,4.25v24.104c0,4.273-3.477,7.75-7.75,7.75h-1.499c-4.273,0-7.75-3.477-7.75-7.75v-17.643
		C255.567,193.303,254.629,191.813,253.155,191.106z M28.906,71.513h158.867v9.112c0,1.288,0.167,2.535,0.451,3.737H9.968
		C12.979,76.844,20.326,71.513,28.906,71.513z M288.513,444.628v12.271H122.725v-12.271c0-7.68,6.247-13.929,13.926-13.929h137.934
		C282.264,430.699,288.513,436.948,288.513,444.628z M264.562,422.199H146.674l14.303-47.502h89.28L264.562,422.199z
		 M382.331,366.197H28.906c-11.252,0-20.406-9.155-20.406-20.407v-24.928h62.461c2.347,0,4.25-1.903,4.25-4.25
		s-1.903-4.25-4.25-4.25H8.5v-17.656h394.237v29.514H297.313c-2.347,0-4.25,1.903-4.25,4.25s1.903,4.25,4.25,4.25h105.425v13.07
		C402.737,357.042,393.583,366.197,382.331,366.197z M473.273,111.625c0,3.722-3.028,6.75-6.75,6.75h-133.5
		c-8.409,0-15.25,6.841-15.25,15.25v16.745c-7.408,1.51-13,8.075-13,15.922v86.667c0,8.96,7.29,16.25,16.25,16.25h2
		c8.96,0,16.25-7.29,16.25-16.25v-86.667c0-7.848-5.592-14.413-13-15.922v-16.745c0-3.722,3.028-6.75,6.75-6.75h69.714v159.331H8.5
		V154.229h135.82c2.347,0,4.25-1.903,4.25-4.25c0-2.347-1.903-4.25-4.25-4.25H8.5V92.862h184.866
		c2.856,2.491,6.579,4.013,10.658,4.013h0.044v100.706c0,8.96,7.289,16.25,16.25,16.25h1.499c7.731,0,14.218-5.427,15.853-12.671
		c1.489,0.442,3.051,0.671,4.648,0.671h1.499c1.096,0,2.185-0.113,3.251-0.332v11.082c0,8.96,7.289,16.25,16.25,16.25h1.499
		c8.96,0,16.25-7.29,16.25-16.25v-20.418c6.906-1.873,12-8.196,12-15.686V96.875h146.957c8.961,0,16.25-7.29,16.25-16.25v-19.75
		h10.25c3.722,0,6.75,3.028,6.75,6.75V111.625z M321.023,158.542h2c4.273,0,7.75,3.477,7.75,7.75v86.667
		c0,4.273-3.476,7.75-7.75,7.75h-2c-4.273,0-7.75-3.477-7.75-7.75v-86.667C313.273,162.018,316.75,158.542,321.023,158.542z"/>
	<path d="M228.198,111.042c-2.347,0-4.25,1.903-4.25,4.25v46.5c0,2.347,1.903,4.25,4.25,4.25c2.347,0,4.25-1.903,4.25-4.25v-46.5
		C232.448,112.945,230.545,111.042,228.198,111.042z"/>
</g>
<g>
</g>
<g>
</g>
<g>
</g>
<g>
</g>
<g>
</g>
<g>
</g>
<g>
</g>
<g>
</g>
<g>
</g>
<g>
</g>
<g>
</g>
<g>
</g>
<g>
</g>
<g>
</g>
<g>
</g>
</svg>
