<?xml version="1.0" encoding="utf-8"?>
<!-- Generator: Adobe Illustrator 23.0.4, SVG Export Plug-In . SVG Version: 6.00 Build 0)  -->
<svg version="1.1" id="Capa_1" xmlns="http://www.w3.org/2000/svg" xmlns:xlink="http://www.w3.org/1999/xlink" x="0px" y="0px"
	 viewBox="0 0 480.9 480.9" style="enable-background:new 0 0 480.9 480.9;" xml:space="preserve">
<style type="text/css">
	.st0{fill:#FFFFFF;}
</style>
<g>
	<path class="st0" d="M40.1,83.6v58.8c0,7.2,5.2,15.1,11.8,18l14.5,6.3c5.6,2.4,14.9,4.4,21,4.4h306c6.2,0,15.4-1.9,21-4.4l14.5-6.3
		c6.6-2.9,11.8-10.8,11.8-18V83.6c0-7.2-5.2-15.1-11.8-18l-14.5-6.3c-5.6-2.4-14.9-4.4-21-4.4l-306,0c-6.2,0-15.4,1.9-21,4.4
		l-14.5,6.3C45.3,68.5,40.1,76.4,40.1,83.6z M55.3,73.4l14.5-6.3c4.6-2,12.7-3.7,17.7-3.7l306,0c5,0,13.1,1.7,17.7,3.7l14.5,6.3
		c3.6,1.5,6.7,6.3,6.7,10.2v58.8c0,3.9-3.1,8.7-6.7,10.2l-14.5,6.3c-4.6,2-12.7,3.7-17.7,3.7h-306c-5,0-13.1-1.7-17.7-3.7l-14.5-6.3
		c-3.6-1.5-6.7-6.3-6.7-10.2v-39.1h100.3c2.3,0,4.2-1.9,4.2-4.2s-1.9-4.2-4.2-4.2H48.6V83.6C48.6,79.7,51.7,75,55.3,73.4z"/>
	<path class="st0" d="M319.6,118.2h69.8c7,0,12.7-5.7,12.7-12.7V88.7c0-7-5.7-12.7-12.7-12.7h-69.8c-7,0-12.7,5.7-12.7,12.7v16.8
		C307,112.5,312.7,118.2,319.6,118.2z M315.5,88.7c0-2.3,1.9-4.2,4.2-4.2h69.8c2.3,0,4.2,1.9,4.2,4.2v16.8c0,2.3-1.9,4.2-4.2,4.2
		h-69.8c-2.3,0-4.2-1.9-4.2-4.2L315.5,88.7L315.5,88.7z"/>
	<path class="st0" d="M414.5,186.8c-5.6-2.4-14.9-4.4-21-4.4h-306c-6.2,0-15.4,1.9-21,4.4l-14.5,6.3c-6.6,2.9-11.8,10.8-11.8,18
		v58.8c0,7.2,5.2,15.1,11.8,18l14.5,6.3c5.6,2.4,14.9,4.4,21,4.4h306c6.2,0,15.4-1.9,21-4.4l14.5-6.3c6.6-2.9,11.8-10.8,11.8-18
		v-58.8c0-7.2-5.2-15.1-11.8-18L414.5,186.8z M432.3,261.8h-90.5c-2.3,0-4.2,1.9-4.2,4.2s1.9,4.2,4.2,4.2h90.4
		c-0.2,3.8-3.2,8.3-6.7,9.8l-14.5,6.3c-4.6,2-12.7,3.7-17.7,3.7h-306c-5,0-13.1-1.7-17.7-3.7L55.3,280c-3.6-1.5-6.7-6.3-6.7-10.2
		v-7.6h85.3c2.3,0,4.2-1.9,4.2-4.2c0-2.3-1.9-4.2-4.2-4.2H48.6v-24.5h56.3c2.3,0,4.2-1.9,4.2-4.2s-1.9-4.2-4.2-4.2H48.6v-9.7
		c0-3.9,3.1-8.7,6.7-10.2l14.5-6.3c4.6-2,12.7-3.7,17.7-3.7h306c5,0,13.1,1.7,17.7,3.7l14.5,6.3c3.6,1.5,6.7,6.3,6.7,10.2
		L432.3,261.8L432.3,261.8z"/>
	<path class="st0" d="M389.5,203.4h-69.8c-7,0-12.7,5.7-12.7,12.7v16.8c0,7,5.7,12.7,12.7,12.7h69.8c7,0,12.7-5.7,12.7-12.7v-16.8
		C402.1,209.1,396.4,203.4,389.5,203.4z M393.6,232.9c0,2.3-1.9,4.2-4.2,4.2h-69.8c-2.3,0-4.2-1.9-4.2-4.2v-16.8
		c0-2.3,1.9-4.2,4.2-4.2h69.8c2.3,0,4.2,1.9,4.2,4.2V232.9z"/>
	<path class="st0" d="M440.8,397.3v-58.8c0-7.2-5.2-15.1-11.8-18l-14.5-6.3c-5.6-2.4-14.9-4.4-21-4.4h-306c-6.2,0-15.4,1.9-21,4.4
		l-14.5,6.3c-6.6,2.9-11.8,10.8-11.8,18v58.8c0,7.2,5.2,15.1,11.8,18l14.5,6.3c5.6,2.4,14.9,4.4,21,4.4h306c6.2,0,15.4-1.9,21-4.4
		l14.5-6.3C435.6,412.4,440.8,404.5,440.8,397.3z M425.6,407.5l-14.5,6.3c-4.6,2-12.7,3.7-17.7,3.7h-306c-5,0-13.1-1.7-17.7-3.7
		l-14.5-6.3c-3.6-1.5-6.7-6.3-6.7-10.2v-50h31.3c2.3,0,4.2-1.9,4.2-4.2s-1.9-4.2-4.2-4.2H48.6v-0.3c0-3.9,3.1-8.7,6.7-10.2l14.5-6.3
		c4.6-2,12.7-3.7,17.7-3.7h306c5,0,13.1,1.7,17.7,3.7l14.5,6.3c3.6,1.5,6.7,6.3,6.7,10.2V393h-19.5c-2.3,0-4.2,1.9-4.2,4.2
		s1.9,4.2,4.2,4.2h18.4C430,404.1,427.9,406.5,425.6,407.5z"/>
	<path class="st0" d="M389.5,330.9h-69.8c-7,0-12.7,5.7-12.7,12.7v16.8c0,7,5.7,12.7,12.7,12.7h69.8c7,0,12.7-5.7,12.7-12.7v-16.8
		C402.1,336.6,396.4,330.9,389.5,330.9z M393.6,360.4c0,2.3-1.9,4.2-4.2,4.2h-69.8c-2.3,0-4.2-1.9-4.2-4.2v-16.8
		c0-2.3,1.9-4.2,4.2-4.2h69.8c2.3,0,4.2,1.9,4.2,4.2V360.4z"/>
	<path class="st0" d="M55.7,431.7l-18.4,0c-2.4,0-4.3-1.9-4.3-4.3V53.4c0-2.4,1.9-4.3,4.3-4.3H56c2.3,0,4.2-1.9,4.2-4.2v-14
		c0-7.6-6.2-13.8-13.8-13.8H13.8C6.2,17.1,0,23.3,0,30.9v419c0,7.6,6.2,13.8,13.8,13.8h32.7c7.6,0,13.8-6.2,13.8-13.8v-14
		c0-1.2-0.5-2.3-1.4-3.1C58,432.1,56.8,431.7,55.7,431.7z M51.8,450c0,2.9-2.4,5.3-5.3,5.3H13.8c-2.9,0-5.3-2.4-5.3-5.3v-419
		c0-2.9,2.4-5.3,5.3-5.3h32.7c2.9,0,5.3,2.4,5.3,5.3v9.7H37.3c-7,0-12.8,5.7-12.8,12.8v374.1c0,7,5.7,12.8,12.8,12.8h14.5V450z"/>
	<path class="st0" d="M467.1,17.1h-32.7c-7.6,0-13.8,6.2-13.8,13.8v14c0,1.2,0.5,2.3,1.4,3.1c0.9,0.8,2.1,1.2,3.2,1.1l18.4,0
		c2.4,0,4.3,1.9,4.3,4.3v374.1c0,2.4-1.9,4.3-4.3,4.3h-18.8c-2.3,0-4.2,1.9-4.2,4.2v14c0,7.6,6.2,13.8,13.8,13.8h32.7
		c7.6,0,13.8-6.2,13.8-13.8v-419C480.9,23.3,474.7,17.1,467.1,17.1z M472.4,450c0,2.9-2.4,5.3-5.3,5.3h-32.7c-2.9,0-5.3-2.4-5.3-5.3
		v-9.7h14.5c7,0,12.8-5.7,12.8-12.8V53.4c0-7-5.7-12.8-12.8-12.8h-14.5v-9.7c0-2.9,2.4-5.3,5.3-5.3h32.7c2.9,0,5.3,2.4,5.3,5.3V450z
		"/>
</g>
</svg>
