<?xml version="1.0" encoding="iso-8859-1"?>
<!-- Generator: Adobe Illustrator 18.0.0, SVG Export Plug-In . SVG Version: 6.00 Build 0)  -->
<!DOCTYPE svg PUBLIC "-//W3C//DTD SVG 1.1//EN" "http://www.w3.org/Graphics/SVG/1.1/DTD/svg11.dtd">
<svg version="1.1" id="Capa_1" xmlns="http://www.w3.org/2000/svg" xmlns:xlink="http://www.w3.org/1999/xlink" x="0px" y="0px"
	 viewBox="0 0 480.897 480.897" style="enable-background:new 0 0 480.897 480.897;" xml:space="preserve">
<g>
	<path d="M40.09,83.627v58.766c0,7.227,5.194,15.135,11.823,18.005l14.509,6.283c5.645,2.445,14.89,4.361,21.046,4.361h305.961
		c6.156,0,15.401-1.916,21.045-4.36l14.509-6.284c6.63-2.87,11.824-10.778,11.824-18.004V83.627c0-7.226-5.193-15.135-11.823-18.006
		l-14.51-6.283c-5.648-2.445-14.892-4.36-21.045-4.36L87.469,54.977c-6.153,0-15.397,1.916-21.046,4.361l-14.51,6.283
		C45.283,68.493,40.09,76.402,40.09,83.627z M55.291,73.422l14.51-6.283c4.584-1.985,12.675-3.662,17.668-3.662l305.961,0.001
		c4.994,0,13.085,1.677,17.667,3.661l14.51,6.283c3.57,1.545,6.701,6.315,6.701,10.205v58.767c0,3.891-3.131,8.658-6.701,10.203
		l-14.51,6.285c-4.581,1.983-12.671,3.66-17.667,3.66H87.469c-4.997,0-13.087-1.677-17.668-3.661l-14.51-6.284
		c-3.57-1.545-6.701-6.313-6.701-10.204v-39.132h100.266c2.347,0,4.25-1.902,4.25-4.25s-1.903-4.25-4.25-4.25H48.59V83.627
		C48.59,79.737,51.721,74.968,55.291,73.422z"/>
	<path d="M319.635,118.154h69.817c6.982,0,12.662-5.681,12.662-12.662V88.669c0-6.981-5.68-12.662-12.662-12.662h-69.817
		c-6.982,0-12.663,5.681-12.663,12.662v16.822C306.972,112.473,312.652,118.154,319.635,118.154z M315.472,88.669
		c0-2.295,1.867-4.162,4.163-4.162h69.817c2.295,0,4.162,1.867,4.162,4.162v16.822c0,2.295-1.867,4.162-4.162,4.162h-69.817
		c-2.295,0-4.163-1.867-4.163-4.162V88.669z"/>
	<path d="M414.475,186.778c-5.646-2.446-14.891-4.362-21.046-4.362H87.469c-6.156,0-15.4,1.916-21.046,4.361l-14.51,6.284
		c-6.629,2.872-11.823,10.78-11.823,18.005v58.766c0,7.225,5.193,15.133,11.823,18.006l14.51,6.283
		c5.648,2.445,14.893,4.361,21.046,4.361h305.961c6.153,0,15.397-1.916,21.045-4.361l14.51-6.284
		c6.629-2.871,11.823-10.78,11.823-18.005v-58.766c0-7.225-5.193-15.134-11.823-18.006L414.475,186.778z M432.308,261.761h-90.452
		c-2.347,0-4.25,1.902-4.25,4.25s1.903,4.25,4.25,4.25h90.431c-0.216,3.805-3.241,8.286-6.68,9.775l-14.51,6.283
		c-4.584,1.985-12.675,3.662-17.667,3.662H87.469c-4.993,0-13.084-1.677-17.668-3.662l-14.509-6.282
		c-3.57-1.547-6.702-6.316-6.702-10.206v-7.57h85.266c2.347,0,4.25-1.902,4.25-4.25c0-2.348-1.903-4.25-4.25-4.25H48.59v-24.5
		h56.266c2.347,0,4.25-1.902,4.25-4.25s-1.903-4.25-4.25-4.25H48.59v-9.695c0-3.89,3.132-8.659,6.701-10.205l14.51-6.284
		c4.582-1.984,12.672-3.661,17.667-3.661h305.961c4.995,0,13.085,1.677,17.667,3.662l14.509,6.282
		c3.57,1.547,6.702,6.316,6.702,10.206V261.761z"/>
	<path d="M389.452,203.446h-69.817c-6.982,0-12.663,5.68-12.663,12.66v16.825c0,6.982,5.68,12.661,12.663,12.661h69.817
		c6.982,0,12.662-5.68,12.662-12.661v-16.825C402.114,209.126,396.434,203.446,389.452,203.446z M393.614,232.931
		c0,2.295-1.867,4.161-4.162,4.161h-69.817c-2.295,0-4.163-1.866-4.163-4.161v-16.825c0-2.294,1.867-4.16,4.163-4.16h69.817
		c2.295,0,4.162,1.866,4.162,4.16V232.931z"/>
	<path d="M440.808,397.27v-58.767c0-7.226-5.194-15.134-11.823-18.004l-14.509-6.283c-5.645-2.445-14.89-4.361-21.046-4.361H87.469
		c-6.157,0-15.401,1.916-21.046,4.36L51.914,320.5c-6.63,2.87-11.824,10.778-11.824,18.004v58.767
		c0,7.225,5.193,15.133,11.823,18.006l14.51,6.283c5.647,2.445,14.892,4.36,21.046,4.36h305.961c6.154,0,15.398-1.915,21.045-4.36
		l14.51-6.283C435.614,412.405,440.808,404.496,440.808,397.27z M425.606,407.475l-14.51,6.283
		c-4.582,1.984-12.673,3.661-17.667,3.661H87.469c-4.994,0-13.085-1.677-17.668-3.661l-14.509-6.282
		c-3.57-1.547-6.702-6.316-6.702-10.206v-50.009h31.266c2.347,0,4.25-1.902,4.25-4.25s-1.903-4.25-4.25-4.25H48.59v-0.258
		c0-3.891,3.131-8.658,6.701-10.203l14.51-6.285c4.58-1.983,12.671-3.66,17.667-3.66h305.961c4.996,0,13.087,1.677,17.667,3.661
		l14.511,6.284c3.569,1.545,6.7,6.313,6.7,10.203v54.517h-19.452c-2.347,0-4.25,1.902-4.25,4.25c0,2.348,1.903,4.25,4.25,4.25
		h18.402C430.045,404.115,427.921,406.473,425.606,407.475z"/>
	<path d="M389.452,330.884h-69.817c-6.982,0-12.663,5.68-12.663,12.661v16.824c0,6.981,5.68,12.661,12.663,12.661h69.817
		c6.982,0,12.662-5.68,12.662-12.661v-16.824C402.114,336.564,396.434,330.884,389.452,330.884z M393.614,360.37
		c0,2.295-1.867,4.161-4.162,4.161h-69.817c-2.295,0-4.163-1.866-4.163-4.161v-16.824c0-2.295,1.867-4.161,4.163-4.161h69.817
		c2.295,0,4.162,1.866,4.162,4.161V360.37z"/>
	<path d="M55.654,431.735l-18.357,0.013c-2.354,0-4.268-1.915-4.268-4.268V53.418c0-2.354,1.915-4.269,4.268-4.269h18.752
		c2.347,0,4.25-1.902,4.25-4.25V30.926c0-7.605-6.188-13.793-13.793-13.793H13.793C6.188,17.133,0,23.321,0,30.926v419.045
		c0,7.605,6.188,13.793,13.793,13.793h32.713c7.606,0,13.793-6.188,13.793-13.793v-14.004c0-1.181-0.535-2.305-1.399-3.109
		C58.035,432.054,56.835,431.652,55.654,431.735z M51.799,449.971c0,2.919-2.375,5.293-5.293,5.293H13.793
		c-2.918,0-5.293-2.374-5.293-5.293V30.926c0-2.919,2.375-5.293,5.293-5.293h32.713c2.919,0,5.293,2.374,5.293,5.293v9.724H37.297
		c-7.04,0-12.768,5.728-12.768,12.769v374.061c0,7.041,5.728,12.768,12.768,12.768h14.502V449.971z"/>
	<path d="M467.104,17.133h-32.713c-7.605,0-13.793,6.188-13.793,13.793V44.93c0,1.181,0.535,2.305,1.399,3.109
		c0.865,0.805,2.069,1.218,3.246,1.123l18.357-0.013c2.354,0,4.269,1.915,4.269,4.269v374.061c0,2.353-1.915,4.268-4.269,4.268
		h-18.752c-2.347,0-4.25,1.902-4.25,4.25v13.974c0,7.605,6.188,13.793,13.793,13.793h32.713c7.605,0,13.793-6.188,13.793-13.793
		V30.926C480.897,23.321,474.71,17.133,467.104,17.133z M472.397,449.971c0,2.919-2.375,5.293-5.293,5.293h-32.713
		c-2.918,0-5.293-2.374-5.293-5.293v-9.724h14.502c7.04,0,12.769-5.728,12.769-12.768V53.418c0-7.041-5.728-12.769-12.769-12.769
		h-14.502v-9.724c0-2.919,2.375-5.293,5.293-5.293h32.713c2.918,0,5.293,2.374,5.293,5.293V449.971z"/>
</g>
<g>
</g>
<g>
</g>
<g>
</g>
<g>
</g>
<g>
</g>
<g>
</g>
<g>
</g>
<g>
</g>
<g>
</g>
<g>
</g>
<g>
</g>
<g>
</g>
<g>
</g>
<g>
</g>
<g>
</g>
</svg>
