<?xml version="1.0" encoding="iso-8859-1"?>
<!-- Generator: Adobe Illustrator 18.0.0, SVG Export Plug-In . SVG Version: 6.00 Build 0)  -->
<!DOCTYPE svg PUBLIC "-//W3C//DTD SVG 1.1//EN" "http://www.w3.org/Graphics/SVG/1.1/DTD/svg11.dtd">
<svg version="1.1" id="Capa_1" xmlns="http://www.w3.org/2000/svg" xmlns:xlink="http://www.w3.org/1999/xlink" x="0px" y="0px"
	 viewBox="0 0 486.293 486.293" style="enable-background:new 0 0 486.293 486.293;" xml:space="preserve">
<path d="M480.448,452.507l-51.743-309.351c-2.987-17.856-20.146-32.384-38.25-32.384h-32.688C355.691,49.339,305.076,0,243.146,0
	S130.601,49.339,128.525,110.772H95.838c-18.104,0-35.264,14.527-38.25,32.384L5.844,452.507c-1.492,8.924,0.685,17.38,6.13,23.813
	c5.445,6.432,13.427,9.974,22.474,9.974h417.395c9.047,0,17.029-3.542,22.474-9.974
	C479.764,469.887,481.941,461.431,480.448,452.507z M23.864,396.301h207.604c2.347,0,4.25-1.903,4.25-4.25s-1.903-4.25-4.25-4.25
	H25.286l21.995-131.5h58.854c2.347,0,4.25-1.903,4.25-4.25s-1.903-4.25-4.25-4.25H48.702l5.494-32.847h113.123
	c2.347,0,4.25-1.903,4.25-4.25c0-2.347-1.903-4.25-4.25-4.25H55.618l6.668-39.865h361.721l33.351,199.396H357.169
	c-2.347,0-4.25,1.903-4.25,4.25c0,2.347,1.903,4.25,4.25,4.25H458.78l3.454,20.648h-23.432c-2.347,0-4.25,1.903-4.25,4.25
	s1.903,4.25,4.25,4.25h24.854l4.328,25.877H18.309L23.864,396.301z M243.146,8.5c57.242,0,104.043,45.527,106.115,102.272h-20.053
	c-0.993-21.572-9.813-41.874-25.1-57.547c-16.368-16.782-38.018-26.024-60.962-26.024c-22.947,0-44.597,9.23-60.961,25.992
	c-15.302,15.673-24.124,35.988-25.103,57.58h-20.052C139.103,54.027,185.904,8.5,243.146,8.5z M320.704,110.772H165.586
	c2.066-41.751,36.064-75.071,77.561-75.071C284.623,35.701,318.609,69.016,320.704,110.772z M95.838,119.272h294.618
	c13.897,0,27.574,11.58,29.867,25.286l2.263,13.53H63.708l2.263-13.53C68.263,130.852,81.941,119.272,95.838,119.272z
	 M467.831,470.827c-3.803,4.492-9.481,6.966-15.987,6.966H34.449c-6.506,0-12.184-2.474-15.987-6.966
	c-3.804-4.492-5.307-10.5-4.234-16.918l2.659-15.898h452.518l2.659,15.898C473.138,460.326,471.635,466.334,467.831,470.827z"/>
<g>
</g>
<g>
</g>
<g>
</g>
<g>
</g>
<g>
</g>
<g>
</g>
<g>
</g>
<g>
</g>
<g>
</g>
<g>
</g>
<g>
</g>
<g>
</g>
<g>
</g>
<g>
</g>
<g>
</g>
</svg>
